<?xml version="1.0" encoding="utf-8"?>
<!-- Generator: Adobe Illustrator 27.8.0, SVG Export Plug-In . SVG Version: 6.00 Build 0)  -->
<svg version="1.2" baseProfile="tiny" id="Ebene_1" xmlns="http://www.w3.org/2000/svg" xmlns:xlink="http://www.w3.org/1999/xlink"
	 x="0px" y="0px" viewBox="0 0 3564 1916" overflow="visible" xml:space="preserve">
<g>
	<path fill="#FF87FF" d="M1439.6,1276.1v67.8h-3.8v-73h6.5l21.1,68.7l20.8-68.7h6.7v73h-4.6v-67.8l-20.7,67.8h-5.1L1439.6,1276.1z"
		/>
	<path fill="#FF87FF" d="M1497.6,1316.6c0-16.7,12.2-28.5,28.3-28.5c17.1,0,28.6,11,28.3,27.4h-51.7c0,19.8,10.7,26.6,23.4,26.6
		c11.9,0,20.8-5.7,22.2-16.5h5c-2.5,12.8-14,19.4-27.2,19.4C1509.5,1345,1497.6,1333.3,1497.6,1316.6z M1525.9,1291
		c-12.1,0-21.6,7.1-23,21.6h46.7C1548.9,1298.8,1539.4,1291,1525.9,1291z"/>
	<path fill="#FF87FF" d="M1560,1341.1h26.1V1274H1560v-2.9h30.8v70h26.1v2.9H1560V1341.1z"/>
	<path fill="#FF87FF" d="M1647.4,1332.1v-40h-24.6v-2.9h24.6v-12.9h4.8v12.9h27.4v2.9h-27.4v39.9c0,6.7,2.2,9.1,8.1,9.1h19.3v2.9
		h-20.4C1652.1,1344,1647.4,1340.1,1647.4,1332.1z"/>
	<path fill="#FF87FF" d="M1685.3,1316.6c0-16.7,12.2-28.5,28.3-28.5c17.1,0,28.6,11,28.3,27.4h-51.7c0,19.8,10.7,26.6,23.4,26.6
		c11.9,0,20.8-5.7,22.2-16.5h5c-2.5,12.8-14,19.4-27.2,19.4C1697.2,1345,1685.3,1333.3,1685.3,1316.6z M1713.5,1291
		c-12.1,0-21.6,7.1-23,21.6h46.7C1736.6,1298.8,1727.1,1291,1713.5,1291z"/>
	<path fill="#FF87FF" d="M1747.4,1316.6c0-16.7,11.4-28.5,28-28.5c9,0,17.2,5.3,21.6,12.5V1271h4.8v73h-4.8v-11
		c-4.3,7.2-12.4,12.1-21.6,12.1C1758.8,1345,1747.4,1333.3,1747.4,1316.6z M1797.4,1316.6c0-16.2-9.4-25.5-22-25.5
		c-13.4,0-23,8.9-23,25.5s9.6,25.5,23,25.5C1788.1,1342.1,1797.4,1332.8,1797.4,1316.6z"/>
</g>
<g>
	<g>
	</g>
	<g>
	</g>
	<g>
	</g>
	<g>
	</g>
	<g>
		<path fill="#FF87FF" d="M1792.4,1404.4c0-16.7,12.2-28.5,28.3-28.5c17.1,0,28.6,11,28.3,27.4h-51.7c0,19.8,10.7,26.6,23.4,26.6
			c11.9,0,20.8-5.7,22.2-16.5h5c-2.5,12.8-14,19.4-27.2,19.4C1804.3,1432.9,1792.4,1421.1,1792.4,1404.4z M1820.7,1378.9
			c-12.1,0-21.6,7.1-23,21.6h46.7C1843.7,1386.6,1834.2,1378.9,1820.7,1378.9z"/>
	</g>
	<g>
		<path fill="#FF87FF" d="M1732.9,1377h5.2l20.4,51.1l21.1-51.1h4l-22.8,54.8h-5L1732.9,1377z"/>
	</g>
	<g>
		<path fill="#FF87FF" d="M1666.8,1404.4c0-16.7,12.1-28.5,29-28.5s29,11.8,29,28.5s-12.1,28.5-29,28.5S1666.8,1421.1,1666.8,1404.4
			z M1719.7,1404.4c0-17.1-10-25.5-24-25.5c-14,0-24,8.4-24,25.5s10,25.5,24,25.5C1709.7,1430,1719.7,1421.5,1719.7,1404.4z"/>
	</g>
	<g>
		<path fill="#FF87FF" d="M1611.9,1358.9h5.4v69.6h44v3.3h-49.4V1358.9z"/>
	</g>
	<g>
	</g>
	<g>
		<path fill="#FF87FF" d="M1524.6,1377h4.8v8c5.1-5.6,12-9.1,19.3-9.1c6.5,0,11.6,1.7,15,5.5c2.9,3.3,4.5,8.2,4.5,14.6v3.4h-4.8
			v-1.9c0-13-5.5-18.8-15.6-18.8c-7.8,0-16.7,6.5-18.3,14.2v38.8h-4.8V1377z"/>
	</g>
	<g>
		<path fill="#FF87FF" d="M1452.1,1404.4c0-16.7,12.1-28.5,29-28.5s29,11.8,29,28.5s-12.1,28.5-29,28.5S1452.1,1421.1,1452.1,1404.4
			z M1505,1404.4c0-17.1-10-25.5-24-25.5c-14,0-24,8.4-24,25.5s10,25.5,24,25.5C1495,1430,1505,1421.5,1505,1404.4z"/>
	</g>
	<g>
		<path fill="#FF87FF" d="M1414.8,1431.8v-51.9h-24.6v-2.9h24.6v-6.3c0-8,4.7-11.9,11.8-11.9h20.4v2.9h-19.3c-5.9,0-8.1,2.4-8.1,9.1
			v6.1h27.4v2.9h-27.4v51.9H1414.8z"/>
	</g>
</g>
<text transform="matrix(1 0 0 1 1856.2041 1431.8398)" fill="#FF87FF" font-family="'BSTBazaineMono-Thin'" font-size="104.2126px"> </text>
<text transform="matrix(1 0 0 1 1880.6934 1431.8398)" fill="#FF87FF" font-family="'BSTBazaineMono-Thin'" font-size="104.2126px"> </text>
<text transform="matrix(1 0 0 1 1905.1826 1431.8398)" fill="#FF87FF" font-family="'BSTBazaineMono-Thin'" font-size="104.2126px"> </text>
<g>
	<rect x="1390" y="1251.8" fill="#FF87FF" width="2" height="200"/>
</g>
<g>
	<rect x="1858.1" y="1251.8" fill="#FF87FF" width="2" height="200"/>
</g>
<g>
	<rect x="1803.1" y="1451.8" fill="#FF87FF" width="112" height="2"/>
</g>
<g>
	<rect x="1336" y="1451.8" fill="#FF87FF" width="112" height="2"/>
</g>
<g>
	<rect x="1802" y="1251.8" fill="#FF87FF" width="113.1" height="2"/>
</g>
<g>
	<rect x="1338" y="1251.8" fill="#FF87FF" width="108" height="2"/>
</g>
</svg>
