<?xml version="1.0" encoding="utf-8"?>
<!-- Generator: Adobe Illustrator 27.8.0, SVG Export Plug-In . SVG Version: 6.00 Build 0)  -->
<svg version="1.2" baseProfile="tiny" id="Ebene_1" xmlns="http://www.w3.org/2000/svg" xmlns:xlink="http://www.w3.org/1999/xlink"
	 x="0px" y="0px" viewBox="0 0 3564 1916" overflow="visible" xml:space="preserve">
<g>
	<g>
		<path fill="#BABADF" d="M1313.8,1077.8c0,29.2-16.1,48.6-40,48.6c-23.9,0-40-19.5-40-48.6s16.1-48.6,40-48.6
			C1297.7,1029.1,1313.8,1048.6,1313.8,1077.8z M1306.3,1077.8c0-28.8-11.3-44.2-32.5-44.2s-32.5,15.4-32.5,44.2
			c0,28.8,11.3,44.2,32.5,44.2S1306.3,1106.5,1306.3,1077.8z"/>
		<path fill="#BABADF" d="M1331.1,1030.5h57.8v4.4h-52.5l-5.1,38.2c7.6-6.1,17.6-9.9,28.2-9.9c19.7,0,33.6,13.2,33.6,31.5
			s-15.3,31.5-35.3,31.5c-18.6,0-33.6-8.8-36.3-27.1h7.8c1.9,16.1,13.9,22.6,28.5,22.6c16.7,0,27.8-9.6,27.8-27.1
			c0-17.9-10.8-27.1-27.5-27.1c-11.1,0-22.6,5.7-28.1,14.2h-5.6L1331.1,1030.5z"/>
		<path fill="#BABADF" d="M1448,1027.7h62.2v4.4h-55v39.9h55v4.4h-55v48.5h-7.2V1027.7z"/>
		<path fill="#BABADF" d="M1522.4,1088.5c0-22.2,16.3-37.9,37.8-37.9c22.8,0,38.1,14.7,37.8,36.5h-68.9c0,26.4,14.3,35.4,31.3,35.4
			c15.8,0,27.8-7.6,29.6-22h6.7c-3.3,17.1-18.6,25.8-36.3,25.8C1538.2,1126.4,1522.4,1110.7,1522.4,1088.5z M1560,1054.4
			c-16.1,0-28.8,9.4-30.7,28.8h62.2C1590.7,1064.7,1578.1,1054.4,1560,1054.4z"/>
		<path fill="#BABADF" d="M1615.9,1110.3v14.7h-6.4v-97.3h6.4v39.5c5.8-9.6,16.8-16.7,28.8-16.7c22.2,0,37.4,15.7,37.4,37.9
			s-15.1,37.9-37.4,37.9C1632.4,1126.4,1621.6,1119.9,1615.9,1110.3z M1675.4,1088.5c0-22.2-12.8-34-30.7-34
			c-16.8,0-29.3,12.5-29.3,34c0,21.7,12.5,34,29.3,34C1662.6,1122.5,1675.4,1110.7,1675.4,1088.5z"/>
		<path fill="#BABADF" d="M1696.5,1078.7h61.3v4.4h-61.3V1078.7z"/>
		<path fill="#BABADF" d="M1797.2,1094.6l22.8-13.5c12.5-7.4,18.3-11.3,18.3-24.6c0-15.6-10.1-22.9-25.8-22.9
			c-15.6,0-29.2,6.1-30,27.7h-7.5c2.6-21.5,15.7-32.1,37.5-32.1c19.7,0,33.3,12.8,33.3,27.4c0,14.5-9.6,22.2-23.2,30.2l-22,12.8
			c-7.5,4.3-17.4,11.1-16.5,21.1h61.8v4.4h-69.5v-2.5C1776.5,1107.5,1786,1101.2,1797.2,1094.6z"/>
		<path fill="#BABADF" d="M1858.2,1102.1h7.8c1.8,13.9,10.6,19.9,25.6,19.9c21.4,0,32.5-17.8,31-46.8c-6,8.2-16.5,14.3-30.3,14.3
			c-20.6,0-35-12.1-35-30.2s15.3-30.2,36-30.2c23.6,0,37.1,13.9,37.1,45.2c0,30.2-11.8,52.1-38.8,52.1
			C1873.1,1126.4,1860.9,1117.2,1858.2,1102.1z M1921.2,1059.3c0-17.5-11.7-25.7-28.2-25.7c-16.1,0-28.2,8.2-28.2,25.7
			s12.5,25.7,28.2,25.7C1910.3,1085,1921.2,1076.8,1921.2,1059.3z"/>
		<path fill="#BABADF" d="M1981.8,1034.5v90.5h-5v-97.3h8.6l28.1,91.6l27.8-91.6h8.9v97.3h-6.1v-90.5l-27.6,90.5h-6.8L1981.8,1034.5
			z"/>
		<path fill="#BABADF" d="M2063.3,1104.4c0-17.9,13.5-20.4,32-21.7c16.4-1.1,28.2-0.1,28.2-11.8c0-10-10.1-16.5-24.5-16.5
			c-15.3,0-23.9,5.8-26.1,18.6h-6.7c1.9-15.3,16.1-22.5,32.2-22.5c19.6,0,32,9.2,32,26.4v48.1h-6.4v-13.9c-8.2,11-21.1,15.3-32,15.3
			C2074.8,1126.4,2063.3,1119.3,2063.3,1104.4z M2124,1101.1v-20.6c-4.4,5.4-13.8,5-27.9,6.1c-17.9,1.4-26.1,4-26.1,17.8
			c0,11.8,8.3,18.1,23.5,18.1C2106.5,1122.5,2121.3,1114.7,2124,1101.1z"/>
		<path fill="#BABADF" d="M2155,1051.9h6.4v10.7c6.8-7.5,16-12.1,25.7-12.1c8.6,0,15.4,2.2,20,7.4c3.9,4.4,6,11,6,19.5v4.6h-6.4
			v-2.5c0-17.4-7.4-25-20.8-25c-10.4,0-22.2,8.6-24.5,18.9v51.7h-6.4V1051.9z"/>
		<path fill="#BABADF" d="M2286.7,1094.6l22.8-13.5c12.5-7.4,18.3-11.3,18.3-24.6c0-15.6-10.1-22.9-25.8-22.9
			c-15.6,0-29.2,6.1-30,27.7h-7.5c2.6-21.5,15.7-32.1,37.5-32.1c19.7,0,33.3,12.8,33.3,27.4c0,14.5-9.6,22.2-23.2,30.2l-22,12.8
			c-7.5,4.3-17.4,11.1-16.5,21.1h61.8v4.4H2266v-2.5C2266,1107.5,2275.5,1101.2,2286.7,1094.6z"/>
		<path fill="#BABADF" d="M2423.3,1077.8c0,29.2-16.1,48.6-40,48.6c-23.9,0-40-19.5-40-48.6s16.1-48.6,40-48.6
			C2407.2,1029.1,2423.3,1048.6,2423.3,1077.8z M2415.8,1077.8c0-28.8-11.3-44.2-32.5-44.2s-32.5,15.4-32.5,44.2
			c0,28.8,11.3,44.2,32.5,44.2S2415.8,1106.5,2415.8,1077.8z"/>
		<path fill="#BABADF" d="M2453.6,1094.6l22.8-13.5c12.5-7.4,18.3-11.3,18.3-24.6c0-15.6-10.1-22.9-25.8-22.9
			c-15.6,0-29.2,6.1-30,27.7h-7.5c2.6-21.5,15.7-32.1,37.5-32.1c19.7,0,33.3,12.8,33.3,27.4c0,14.5-9.6,22.2-23.2,30.2l-22,12.8
			c-7.5,4.3-17.4,11.1-16.5,21.1h61.8v4.4h-69.5v-2.5C2432.9,1107.5,2442.4,1101.2,2453.6,1094.6z"/>
		<path fill="#BABADF" d="M2513.8,1081.2c0-30.2,15.4-52.1,40.4-52.1c16.7,0,28.9,9.2,31.5,24.3h-7.5c-1.8-13.8-10.6-19.9-24-19.9
			c-19.9,0-34.3,19.3-32.8,47.8c5-8.1,15.3-15.3,30.7-15.3c20.4,0,34.7,12.1,34.7,30.2c0,18.1-14.9,30.2-35.7,30.2
			C2526.8,1126.4,2513.8,1112.2,2513.8,1081.2z M2579.4,1096.2c0-17.2-11.9-25.7-27.9-25.7c-17.1,0-28.5,8.5-28.5,25.7
			c0,17.5,11.4,25.7,28.5,25.7C2567.4,1121.9,2579.4,1113.7,2579.4,1096.2z"/>
	</g>
</g>
<g>
	<g>
		<path fill="#BABADF" d="M1859.5,1144.9h35.7c20.6,0,31.1,8.9,31.1,24.2c0,11.7-6.5,20.4-21.1,22.8c15.4,2.2,23.8,11.1,23.8,23.6
			c0,17.8-13.3,26.7-34.3,26.7h-35.2V1144.9z M1918.8,1169.6c0-13.9-7.9-20.3-24.6-20.3h-27.5v41.1h27.5
			C1911.2,1190.5,1918.8,1183.5,1918.8,1169.6z M1921.4,1215.2c0-16.8-13.2-20.3-26.5-20.3h-28.2v42.8h28.5
			C1912.8,1237.7,1921.4,1230.9,1921.4,1215.2z"/>
		<path fill="#BABADF" d="M1936.9,1238.2h34.7v-65.3h-34.7v-3.9h41.1v69.2h34.7v3.9h-75.9V1238.2z M1970.2,1146.5h9.2v9.7h-9.2
			V1146.5z"/>
		<path fill="#BABADF" d="M2020.4,1205.6c0-22.2,16.3-37.9,37.8-37.9c22.8,0,38.1,14.7,37.8,36.5H2027c0,26.4,14.3,35.4,31.3,35.4
			c15.8,0,27.8-7.6,29.6-22h6.7c-3.3,17.1-18.6,25.8-36.3,25.8C2036.2,1243.5,2020.4,1227.8,2020.4,1205.6z M2058,1171.6
			c-16.1,0-28.8,9.4-30.7,28.8h62.2C2088.7,1181.8,2076.1,1171.6,2058,1171.6z"/>
		<path fill="#BABADF" d="M2114,1169.1h6.4v10.7c6.8-7.5,16-12.1,25.7-12.1c8.6,0,15.4,2.2,20,7.4c3.9,4.4,6,11,6,19.5v47.7h-6.4
			v-47c0-16.4-7.4-23.6-20.8-23.6c-10.4,0-22.2,8.5-24.5,18.6v52h-6.4V1169.1z"/>
		<path fill="#BABADF" d="M2197.5,1169.1h6.4v10.7c6.8-7.5,16-12.1,25.7-12.1c8.6,0,15.4,2.2,20,7.4c3.9,4.4,6,11,6,19.5v47.7h-6.4
			v-47c0-16.4-7.4-23.6-20.8-23.6c-10.4,0-22.2,8.5-24.5,18.6v52h-6.4V1169.1z"/>
		<path fill="#BABADF" d="M2270.6,1238.2h34.7v-65.3h-34.7v-3.9h41.1v69.2h34.7v3.9h-75.9V1238.2z M2304,1146.5h9.2v9.7h-9.2V1146.5
			z"/>
		<path fill="#BABADF" d="M2358.6,1221.6c0-17.9,13.5-20.4,32-21.7c16.4-1.1,28.2-0.1,28.2-11.8c0-10-10.1-16.5-24.5-16.5
			c-15.3,0-23.9,5.8-26.1,18.6h-6.7c1.9-15.3,16.1-22.5,32.2-22.5c19.6,0,32,9.2,32,26.4v48.1h-6.4v-13.9c-8.2,11-21.1,15.3-32,15.3
			C2370.1,1243.5,2358.6,1236.4,2358.6,1221.6z M2419.3,1218.2v-20.6c-4.4,5.4-13.8,5-27.9,6.1c-17.9,1.4-26.1,4-26.1,17.8
			c0,11.8,8.3,18.1,23.5,18.1C2401.8,1239.6,2416.5,1231.9,2419.3,1218.2z"/>
		<path fill="#BABADF" d="M2437.5,1238.2h34.7v-89.5h-34.7v-3.9h41.1v93.4h34.7v3.9h-75.9V1238.2z"/>
	</g>
</g>
</svg>
