<?xml version="1.0" encoding="utf-8"?>
<!-- Generator: Adobe Illustrator 27.8.0, SVG Export Plug-In . SVG Version: 6.00 Build 0)  -->
<svg version="1.2" baseProfile="tiny" id="Ebene_1" xmlns="http://www.w3.org/2000/svg" xmlns:xlink="http://www.w3.org/1999/xlink"
	 x="0px" y="0px" viewBox="0 0 1080 1920" overflow="visible" xml:space="preserve">
<g>
	<path fill="#BABADF" d="M883.1,951.1c-15.8,0-26.4-7.6-26.4-23.8c0-15.9,10.5-23.8,26.4-23.8c14.8,0,25.8,7.8,25.8,23.8
		C908.9,943.5,897.9,951.1,883.1,951.1 M882.8,955.2c19.3,0,33-11.2,33-27.9c0-16.7-13.2-27.9-32.1-27.9c-14.3,0-23.8,6.7-28.4,14.1
		c-1.4-26.4,12-44.2,30.3-44.2c12.5,0,20.6,5.7,22.2,18.4h6.9c-2.4-14-13.8-22.5-29.2-22.5c-23.1,0-37.4,20.3-37.4,48.2
		C848.2,942.1,860.3,955.2,882.8,955.2 M773.5,951.6v2.3h64.3v-4.1h-57.2c-0.8-9.3,8.4-15.6,15.3-19.5l20.3-11.8
		c12.6-7.3,21.5-14.5,21.5-27.9c0-13.5-12.6-25.3-30.9-25.3c-20.2,0-32.3,9.8-34.7,29.7h6.9c0.8-19.9,13.4-25.6,27.8-25.6
		c14.5,0,23.9,6.8,23.9,21.2c0,12.3-5.4,15.9-17,22.8l-21.1,12.5C782.3,932,773.5,937.7,773.5,951.6 M727.7,951.1
		c-19.7,0-30.1-14.3-30.1-40.9s10.4-40.9,30.1-40.9c19.7,0,30.1,14.3,30.1,40.9S747.4,951.1,727.7,951.1 M727.7,865.2
		c-22.1,0-37,18-37,45s14.9,45,37,45c22.1,0,37-18,37-45S749.9,865.2,727.7,865.2 M619.2,951.6v2.3h64.3v-4.1h-57.2
		c-0.8-9.3,8.4-15.6,15.3-19.5l20.3-11.8c12.6-7.3,21.5-14.5,21.5-27.9c0-13.5-12.6-25.3-30.9-25.3c-20.2,0-32.3,9.8-34.7,29.7h6.9
		c0.8-19.9,13.4-25.6,27.8-25.6c14.5,0,23.9,6.8,23.9,21.2c0,12.3-5.4,15.9-17,22.8l-21.1,12.5C628,932,619.2,937.7,619.2,951.6
		 M516.6,953.9h5.9v-47.8c2.1-9.5,13-17.5,22.6-17.5c12.5,0,19.3,7.1,19.3,23.1v2.3h5.9v-4.2c0-7.8-1.9-13.9-5.5-18
		c-4.2-4.8-10.5-6.8-18.5-6.8c-9,0-17.5,4.2-23.8,11.2v-9.9h-5.9V953.9z M459.8,951.6c-14,0-21.7-5.8-21.7-16.7
		c0-12.7,7.6-15.2,24.2-16.5c13.1-1,21.7-0.6,25.8-5.7v19C485.5,944.4,471.8,951.6,459.8,951.6 M458.5,955.2c10,0,22-4,29.6-14.1
		v12.9h5.9v-44.5c0-15.9-11.4-24.4-29.6-24.4c-14.9,0-28,6.7-29.8,20.8h6.2c2.1-11.8,10-17.2,24.2-17.2c13.2,0,22.6,6,22.6,15.3
		c0,10.8-10.9,9.9-26.1,10.9c-17.1,1.2-29.6,3.5-29.6,20.1C431.9,948.7,442.5,955.2,458.5,955.2 M382.1,953.9h6.3l25.6-83.7v83.7
		h5.7v-90h-8.2l-25.7,84.7l-26-84.7h-8v90h4.6v-83.7L382.1,953.9z M274.3,916.9c-14.5,0-26.1-7.6-26.1-23.8
		c0-16.2,11.2-23.8,26.1-23.8c15.3,0,26.1,7.6,26.1,23.8C300.4,909.3,290.4,916.9,274.3,916.9 M273.1,955.2
		c24.9,0,35.9-20.3,35.9-48.2c0-28.9-12.5-41.8-34.3-41.8c-19.2,0-33.3,11.2-33.3,27.9c0,16.7,13.4,27.9,32.4,27.9
		c12.7,0,22.5-5.7,28-13.2c1.4,26.9-8.9,43.3-28.7,43.3c-13.9,0-22-5.5-23.7-18.4h-7.2C244.6,946.7,255.9,955.2,273.1,955.2
		 M166.6,951.6v2.3h64.3v-4.1h-57.2c-0.8-9.3,8.4-15.6,15.3-19.5l20.3-11.8c12.6-7.3,21.5-14.5,21.5-27.9
		c0-13.5-12.6-25.3-30.9-25.3c-20.2,0-32.3,9.8-34.7,29.7h6.9c0.8-19.9,13.4-25.6,27.8-25.6c14.5,0,23.9,6.8,23.9,21.2
		c0,12.3-5.4,15.9-17,22.8l-21.1,12.5C175.3,932,166.6,937.7,166.6,951.6"/>
	<path fill="#BABADF" d="M738,810.2h56.7v-4.1H738V810.2z M690.2,846.6c-15.6,0-27.1-11.4-27.1-31.5c0-19.9,11.6-31.5,27.1-31.5
		c16.6,0,28.4,10.9,28.4,31.5C718.6,835.7,706.8,846.6,690.2,846.6 M690.2,850.2c20.6,0,34.6-14.5,34.6-35.1
		c0-20.6-14-35.1-34.6-35.1c-11.1,0-21.2,6.6-26.6,15.4v-36.5h-5.9v90h5.9v-13.6C668.8,844.2,678.9,850.2,690.2,850.2 M641.1,810.2
		h-57.6c1.8-17.9,13.5-26.6,28.4-26.6C628.6,783.6,640.3,793.1,641.1,810.2 M612.1,850.2c16.3,0,30.5-8.1,33.6-23.9h-6.2
		c-1.7,13.2-12.7,20.3-27.4,20.3c-15.7,0-28.9-8.4-28.9-32.8H647c0.3-20.2-13.9-33.8-35-33.8c-19.9,0-35,14.5-35,35.1
		C577,835.7,591.7,850.2,612.1,850.2 M508.2,848.9h6.7v-44.9h50.9V800h-50.9V763h50.9v-4.1h-57.6V848.9z M393.9,809.1h5.1
		c5-7.8,15.7-13.1,26-13.1c15.4,0,25.5,8.5,25.5,25.1c0,16.2-10.3,25.1-25.7,25.1c-13.5,0-24.6-6-26.4-21h-7.2
		c2.4,17,16.3,25.1,33.6,25.1c18.5,0,32.7-12.2,32.7-29.2c0-17-12.9-29.2-31.1-29.2c-9.8,0-19,3.5-26.1,9.1l4.8-35.4h48.6v-4.1
		h-53.5L393.9,809.1z M347.1,846.1c-19.7,0-30.1-14.3-30.1-40.9c0-26.6,10.4-40.9,30.1-40.9c19.7,0,30.1,14.3,30.1,40.9
		C377.2,831.8,366.8,846.1,347.1,846.1 M347.1,760.2c-22.1,0-37,18-37,45c0,27,14.9,45,37,45c22.1,0,37-18,37-45
		C384.2,778.2,369.2,760.2,347.1,760.2"/>
	<path fill="#BABADF" d="M574,1092.1h70.2v-3.6h-32.1v-86.4H574v3.6h32.1v82.8H574V1092.1z M528.9,1089.8c-14,0-21.7-5.8-21.7-16.7
		c0-12.7,7.6-15.2,24.2-16.5c13.1-1,21.7-0.6,25.8-5.7v19C554.6,1082.6,541,1089.8,528.9,1089.8 M527.6,1093.4c10,0,22-4,29.6-14.1
		v12.9h5.9v-44.5c0-15.9-11.4-24.4-29.6-24.4c-14.9,0-28,6.7-29.8,20.8h6.2c2.1-11.8,10-17.2,24.2-17.2c13.2,0,22.6,6,22.6,15.3
		c0,10.8-10.9,9.9-26.1,10.9c-17.1,1.2-29.6,3.5-29.6,20.1C501,1086.9,511.7,1093.4,527.6,1093.4 M450.6,1012.7h8.5v-9h-8.5V1012.7z
		 M419.7,1092.1H490v-3.6h-32.1v-64h-38.1v3.6h32.1v60.4h-32.1V1092.1z M352.1,1092.1h5.9V1044c2.1-9.4,13-17.2,22.6-17.2
		c12.5,0,19.3,6.7,19.3,21.9v43.5h5.9V1048c0-7.8-1.9-13.9-5.5-18c-4.2-4.8-10.5-6.8-18.5-6.8c-9,0-17.5,4.2-23.8,11.2v-9.9h-5.9
		V1092.1z M275,1092.1h5.9V1044c2.1-9.4,13-17.2,22.6-17.2c12.5,0,19.3,6.7,19.3,21.9v43.5h5.9V1048c0-7.8-1.9-13.9-5.5-18
		c-4.2-4.8-10.5-6.8-18.5-6.8c-9,0-17.5,4.2-23.8,11.2v-9.9H275V1092.1z M252.5,1053.4h-57.6c1.8-17.9,13.5-26.6,28.4-26.6
		C240,1026.8,251.7,1036.3,252.5,1053.4 M223.5,1093.4c16.3,0,30.5-8.1,33.6-23.9h-6.2c-1.7,13.2-12.7,20.3-27.4,20.3
		c-15.7,0-28.9-8.4-28.9-32.8h63.8c0.3-20.2-13.9-33.8-35-33.8c-19.9,0-35,14.5-35,35.1S203.1,1093.4,223.5,1093.4 M142,1012.7h8.5
		v-9H142V1012.7z M111.1,1092.1h70.2v-3.6h-32.1v-64h-38.1v3.6h32.1v60.4h-32.1V1092.1z M71.8,1044.3H46.3v-38.1h25.5
		c15.4,0,22.8,5.9,22.8,18.8C94.5,1037.9,87.5,1044.3,71.8,1044.3 M72.7,1088H46.3v-39.6h26.1c12.3,0,24.6,3.2,24.6,18.8
		C97,1081.7,89,1088,72.7,1088 M39.6,1092.1h32.5c19.4,0,31.8-8.2,31.8-24.7c0-11.6-7.7-19.8-22-21.9c13.5-2.2,19.5-10.3,19.5-21.1
		c0-14.1-9.8-22.4-28.8-22.4h-33V1092.1z"/>
	<path fill="#FF87FF" d="M957.6,1080.4h-33.4c1-10.4,7.8-15.4,16.5-15.4C950.4,1065,957.1,1070.5,957.6,1080.4 M940.8,1103.6
		c9.5,0,17.7-4.7,19.5-13.9h-3.6c-1,7.7-7.4,11.8-15.9,11.8c-9.1,0-16.8-4.8-16.8-19h37c0.1-11.7-8-19.6-20.3-19.6
		c-11.6,0-20.3,8.4-20.3,20.3C920.5,1095.1,929,1103.6,940.8,1103.6 M894.2,1102.8h3.6l16.3-39.2h-2.8l-15.1,36.5l-14.6-36.5h-3.7
		L894.2,1102.8z M851.3,1103.6c12.1,0,20.7-8.4,20.7-20.4c0-11.9-8.6-20.3-20.7-20.3c-12.1,0-20.7,8.4-20.7,20.3
		C830.6,1095.1,839.2,1103.6,851.3,1103.6 M851.3,1101.5c-10,0-17.1-6-17.1-18.3c0-12.2,7.2-18.3,17.1-18.3c10,0,17.1,6,17.1,18.3
		C868.4,1095.4,861.3,1101.5,851.3,1101.5 M791.4,1102.8h35.3v-2.4h-31.5v-49.8h-3.9V1102.8z M728.9,1102.8h3.4v-27.7
		c1.2-5.5,7.5-10.1,13.1-10.1c7.2,0,11.2,4.1,11.2,13.4v1.3h3.4v-2.5c0-4.5-1.1-8.1-3.2-10.4c-2.5-2.8-6.1-4-10.7-4
		c-5.2,0-10.1,2.5-13.8,6.5v-5.7h-3.4V1102.8z M697.7,1103.6c12.1,0,20.7-8.4,20.7-20.4c0-11.9-8.6-20.3-20.7-20.3
		c-12.1,0-20.7,8.4-20.7,20.3C677,1095.1,685.7,1103.6,697.7,1103.6 M697.7,1101.5c-10,0-17.1-6-17.1-18.3
		c0-12.2,7.2-18.3,17.1-18.3c10,0,17.1,6,17.1,18.3C714.9,1095.4,707.7,1101.5,697.7,1101.5 M653.8,1102.8v-37.1h19.6v-2.1h-19.6
		v-4.4c0-4.8,1.6-6.5,5.8-6.5h13.8v-2.1h-14.6c-5.1,0-8.4,2.8-8.4,8.5v4.5h-17.6v2.1h17.6v37.1H653.8z"/>
	<path fill="#FF87FF" d="M908.1,1038.6c-9.6,0-16.5-6.3-16.5-18.3c0-11.9,6.9-18.3,16.5-18.3c9,0,15.7,6.7,15.7,18.3
		C923.8,1032,917.1,1038.6,908.1,1038.6 M908.1,1040.7c6.6,0,12.4-3.5,15.4-8.6v7.9h3.4v-52.2h-3.4v21.2c-3.1-5.1-9-8.9-15.4-8.9
		c-11.9,0-20.1,8.4-20.1,20.3C888,1032.3,896.2,1040.7,908.1,1040.7 M880.8,1017.5h-33.4c1-10.4,7.8-15.4,16.5-15.4
		C873.6,1002.1,880.4,1007.6,880.8,1017.5 M864,1040.7c9.5,0,17.7-4.7,19.5-13.9h-3.6c-1,7.7-7.4,11.8-15.9,11.8
		c-9.1,0-16.8-4.8-16.8-19h37c0.1-11.7-8.1-19.6-20.3-19.6c-11.6,0-20.3,8.4-20.3,20.3C843.7,1032.3,852.2,1040.7,864,1040.7
		 M825,1040h14.6v-2.1h-13.8c-4.2,0-5.8-1.7-5.8-6.5v-28.5h19.6v-2.1H820v-9.2h-3.4v9.2H799v2.1h17.6v28.6
		C816.6,1037.2,819.9,1040,825,1040 M754.2,1040h40.7v-2.1h-18.6v-50.1h-22.1v2.1h18.6v48h-18.6V1040z M746.6,1017.5h-33.4
		c1-10.4,7.8-15.4,16.5-15.4C739.4,1002.1,746.2,1007.6,746.6,1017.5 M729.9,1040.7c9.5,0,17.7-4.7,19.5-13.9h-3.6
		c-1,7.7-7.4,11.8-15.9,11.8c-9.1,0-16.8-4.8-16.8-19h37c0.1-11.7-8-19.6-20.3-19.6c-11.6,0-20.3,8.4-20.3,20.3
		C709.5,1032.3,718,1040.7,729.9,1040.7 M683,1040h3.7l14.8-48.5v48.5h3.3v-52.2H700l-14.9,49.1L670,987.8h-4.6v52.2h2.7v-48.5
		L683,1040z"/>
</g>
<line fill="none" stroke="#FF87FF" stroke-width="0.783" x1="616.3" y1="1040.7" x2="968" y2="1040.7"/>
<line fill="none" stroke="#FF87FF" stroke-width="0.783" x1="968.4" y1="1135" x2="968.4" y2="976.7"/>
<line fill="none" stroke="#FF87FF" stroke-width="0.783" x1="615.9" y1="1135" x2="615.9" y2="976.7"/>
<line fill="none" stroke="#FF87FF" stroke-width="0.783" x1="616.3" y1="1102.6" x2="968" y2="1102.6"/>
</svg>
