<?xml version="1.0" encoding="utf-8"?>
<!-- Generator: Adobe Illustrator 27.8.0, SVG Export Plug-In . SVG Version: 6.00 Build 0)  -->
<svg version="1.2" baseProfile="tiny" id="Ebene_1" xmlns="http://www.w3.org/2000/svg" xmlns:xlink="http://www.w3.org/1999/xlink"
	 x="0px" y="0px" viewBox="0 0 3564 1916" overflow="visible" xml:space="preserve">
<g>
	<path d="M68.3,1606.9v-8.7c0-4.2,2.4-6.6,5.6-6.6c3.1,0,5.6,2.4,5.6,6.6v6.1H88v2.6H68.3z M73.9,1594.3c-2.9,0-4.1,1.5-4.1,4.6v5.3
		H78v-5.3C78,1595.8,76.8,1594.3,73.9,1594.3z"/>
	<path d="M68.3,1582.4v-3l19.7-7.1v2.8l-5.1,1.8v8.8l5.1,1.9v2.1L68.3,1582.4z M81.4,1577.4l-11,3.8l11,4V1577.4z"/>
	<path d="M68.3,1569.2v-8.3c0-3.7,2.2-6.2,5.1-6.2c2.4,0,3.9,1.4,4.5,3.8c0.5-2,1.6-2.9,3.7-2.9h1.5c1.9,0,4-0.4,4.9-1.2v3.1
		c-1,0.7-2.4,0.8-4.5,0.8h-1.7c-2.4,0-3.1,1.2-3.1,3.5v4.9H88v2.6H68.3z M73.4,1557.3c-2.7,0-3.7,1.4-3.7,4.3v5h7.4v-4.7
		C77.2,1558.7,76.1,1557.3,73.4,1557.3z"/>
	<path d="M68.3,1544.7v-3l19.7-7.1v2.8l-5.1,1.8v8.8l5.1,1.9v2.1L68.3,1544.7z M81.4,1539.7l-11,3.8l11,4V1539.7z"/>
	<path d="M68.3,1531.4v-6.8c0-5,3.6-8.3,9.7-8.3c6.2,0,10,3.3,10,8.3v6.8H68.3z M78,1519c-5.7,0-8.3,2.2-8.3,5.7v4.2h16.8v-4.2
		C86.5,1521.1,83.7,1519,78,1519z"/>
	<path d="M86.5,1513.3v-6.4H69.7v6.4h-1.5v-15.4h1.5v6.4h16.8v-6.4H88v15.4H86.5z"/>
	<path d="M81.8,1495v-2.7c3.4-0.1,5-2.6,5-5.9c0-3.1-1.4-5.2-4.2-5.2c-2.5,0-3.5,1.3-3.7,4.4l-0.2,3.1c-0.2,3.7-1.7,6-5,6
		c-3.5,0-5.7-3.3-5.7-7.5c0-4.8,2-7.7,6.4-8.2v2.7c-3.5,0.1-4.9,2.1-4.9,5.5c0,2.8,1.2,4.9,3.9,4.9c2.4,0,3.5-1.5,3.6-4.3l0.1-3
		c0.2-3.8,1.5-6.2,5.2-6.2c3.5,0,6,3.2,6,7.8C88.3,1491,86.1,1494.8,81.8,1495z"/>
	<path d="M78.1,1476c-6.4,0-10.1-3.5-10.1-8.1c0-4.7,3.8-8.1,10.1-8.1s10.1,3.4,10.1,8.1C88.3,1472.5,84.5,1476,78.1,1476z
		 M78.1,1462.4c-6.1,0-8.7,2.2-8.7,5.5s2.6,5.5,8.7,5.5c6,0,8.7-2.1,8.7-5.5S84.2,1462.4,78.1,1462.4z"/>
</g>
<g>
</g>
<g>
	<path d="M70.3,1062.2H88v1.6H68.3v-3l18.1-4.6l-18.1-4.5v-3H88v2H70.2L88,1055v2.6L70.3,1062.2z"/>
	<path d="M80.7,1044.6H68.3v-2.6h13.2c3.7,0,5.3-1.7,5.3-4.8c0-3.1-1.6-4.8-5.3-4.8H68.3v-2.4h12.5c5.1,0,7.5,2.2,7.5,7.3
		S85.8,1044.6,80.7,1044.6z"/>
	<path d="M86.1,1026.3l-16.4-12.6v12.1h-1.4v-14.8h1.9l16.4,12.6v-13H88v15.6H86.1z"/>
	<path d="M86.5,1007.3v-6.4H69.7v6.4h-1.5v-15.4h1.5v6.4h16.8v-6.4H88v15.4H86.5z"/>
	<path d="M68.3,987.2v-13.7h1.5v11.1H77v-11.1h1.5v11.1h8.1v-11.1H88v13.7H68.3z"/>
	<path d="M68.3,968.8v-2.6h9.8L68.3,956v-2.6l7.7,8.1l12-8.2v3.1l-10.3,6.9l2.7,2.9H88v2.6H68.3z"/>
	<path d="M78.1,950.9c-6.4,0-10.1-3.5-10.1-8.1c0-4.1,2.9-7.1,7.3-7.6v2.7c-4,0.3-5.9,2.1-5.9,4.9c0,3.3,2.6,5.5,8.7,5.5
		c6,0,8.7-2.2,8.7-5.5c0-3.1-2.4-4.9-6.6-4.9h-0.6v4.9h-1.5v-7.6h1.6c5,0,8.5,2.9,8.5,7.6C88.3,947.4,84.5,950.9,78.1,950.9z"/>
	<path d="M68.3,930.6V917h1.5V928H77V917h1.5V928h8.1V917H88v13.7H68.3z"/>
	<path d="M68.3,912.3v-7.9c0-4.2,1.9-6.5,4.9-6.5c2.3,0,4,1.4,4.6,4.2c0.5-3.1,2.3-4.8,4.8-4.8c3.5,0,5.4,2.8,5.4,7.5v7.5H68.3z
		 M73.5,900.5c-2.6,0-3.7,1.5-3.7,4.5v4.7h7.5v-4.7C77.2,901.9,76,900.5,73.5,900.5z M82.5,899.9c-3,0-3.8,2.1-3.8,4.9v4.9h7.8v-4.8
		C86.5,901.6,85.3,899.9,82.5,899.9z"/>
	<path d="M78.1,894.5c-6.4,0-10.1-3.5-10.1-8.1c0-4.7,3.8-8.1,10.1-8.1s10.1,3.4,10.1,8.1C88.3,891,84.5,894.5,78.1,894.5z
		 M78.1,880.9c-6.1,0-8.7,2.2-8.7,5.5s2.6,5.5,8.7,5.5c6,0,8.7-2.1,8.7-5.5S84.2,880.9,78.1,880.9z"/>
	<path d="M80.7,874.8H68.3v-2.6h13.2c3.7,0,5.3-1.7,5.3-4.8c0-3.1-1.6-4.8-5.3-4.8H68.3v-2.4h12.5c5.1,0,7.5,2.2,7.5,7.3
		S85.8,874.8,80.7,874.8z"/>
	<path d="M68.3,857v-2l17.4-2.5l-17.4-2.7v-2.6l17.3-2.8L68.3,842v-1.6l19.7,2.9v2.6l-17.5,2.8l17.5,2.6v2.6L68.3,857z"/>
</g>
<g>
	<path d="M33.4,1347.5v-13.7h1.5v11.1h7.2v-11.1h1.5v11.1h8.1v-11.1h1.5v13.7H33.4z"/>
	<path d="M45.7,1323.4l-12.3,7.2v-3l10.4-5.9l-10.4-5.8v-2.1l12.4,7h7.3v2.6H45.7z"/>
	<path d="M33.4,1309.8v-13.7h1.5v11.1h7.2v-11.1h1.5v11.1h8.1v-11.1h1.5v13.7H33.4z"/>
	<path d="M33.4,1271.7v-13.2h1.5v10.6h7.2v-10.6h1.5v10.6h9.5v2.6H33.4z"/>
	<path d="M51.6,1254.4v-6.4H34.9v6.4h-1.5v-15.4h1.5v6.4h16.8v-6.4h1.5v15.4H51.6z"/>
	<path d="M33.4,1234.1v-2.6h18.2v-11.4h1.5v14H33.4z"/>
	<path d="M35.4,1215h17.7v1.6H33.4v-3l18.1-4.6l-18.1-4.5v-3h19.7v2H35.4l17.7,4.4v2.6L35.4,1215z"/>
	<path d="M35.4,1196.1h17.7v1.6H33.4v-3l18.1-4.6l-18.1-4.5v-3h19.7v2H35.4l17.7,4.4v2.6L35.4,1196.1z"/>
	<path d="M45.9,1178.6H33.4v-2.6h13.2c3.7,0,5.3-1.7,5.3-4.8c0-3.1-1.6-4.8-5.3-4.8H33.4v-2.4h12.5c5.1,0,7.5,2.2,7.5,7.3
		C53.4,1176.3,50.9,1178.6,45.9,1178.6z"/>
	<path d="M46.9,1160.7v-2.7c3.4-0.1,5-2.6,5-5.9c0-3.1-1.4-5.2-4.2-5.2c-2.5,0-3.5,1.3-3.7,4.4l-0.2,3.1c-0.2,3.7-1.7,6-5,6
		c-3.5,0-5.7-3.3-5.7-7.5c0-4.8,2-7.7,6.4-8.2v2.7c-3.5,0.1-4.9,2.1-4.9,5.5c0,2.8,1.2,4.9,3.9,4.9c2.4,0,3.5-1.5,3.6-4.3l0.1-3
		c0.2-3.8,1.5-6.2,5.2-6.2c3.5,0,6,3.2,6,7.8C53.4,1156.7,51.3,1160.5,46.9,1160.7z"/>
	<path d="M33.4,1140.1v-13.7h1.5v11.1h7.2v-11.1h1.5v11.1h8.1v-11.1h1.5v13.7H33.4z"/>
	<path d="M45.9,1122H33.4v-2.6h13.2c3.7,0,5.3-1.7,5.3-4.8c0-3.1-1.6-4.8-5.3-4.8H33.4v-2.4h12.5c5.1,0,7.5,2.2,7.5,7.3
		C53.4,1119.8,50.9,1122,45.9,1122z"/>
	<path d="M35.4,1101.8h17.7v1.6H33.4v-3l18.1-4.6l-18.1-4.5v-3h19.7v2H35.4l17.7,4.4v2.6L35.4,1101.8z"/>
</g>
<g>
</g>
<g>
	<path d="M33.4,965.3v-2l17.4-2.5l-17.4-2.7v-2.6l17.3-2.8l-17.3-2.4v-1.6l19.7,2.9v2.6L35.6,957l17.5,2.6v2.6L33.4,965.3z"/>
	<path d="M51.6,946.3v-7.1H38c0.1,0.4,0.2,0.8,0.2,1.3v4.1h-1.5V941c0-1.5-0.8-2.2-2.2-2.2H34v-2.2h17.7v-7.1h1.5v16.8H51.6z"/>
	<path d="M46.6,927.2v-2.7c4,0,5.3-2.8,5.3-5.7s-1.4-5-4.1-5c-2.9,0-3.9,1.6-3.9,5.2v2.2h-1.5v-2.2c0-3.2-1.2-4.8-3.6-4.8
		c-2.3,0-3.6,2-3.6,4.7c0,2.6,1.2,5.2,4.9,5.3v2.6c-4.3-0.6-6.3-3.5-6.3-7.9c0-4.2,2.2-7.4,5.3-7.4c2,0,3.5,1.5,4.1,4.2
		c0.5-3,2.2-4.6,4.7-4.6c3.3,0,5.7,3.3,5.7,7.6C53.4,923.6,51.1,926.6,46.6,927.2z"/>
	<path d="M48.3,907.9v-2.7c2.5-0.3,3.6-1.8,3.6-4.4c0-3.8-2.9-5.5-8-5.4c1.3,1.2,2.2,3.1,2.2,5.5c0,4.4-2.5,7.4-6.2,7.4
		c-3.7,0-6.2-3.3-6.2-7.8c0-5.1,3-7.9,9.3-7.9c6,0,10.4,2.6,10.4,8.2C53.4,904.8,51.5,907.4,48.3,907.9z M39.9,895.5
		c-3.3,0-4.7,2.1-4.7,5.1c0,3,1.5,5.1,4.7,5.1s4.8-2.2,4.8-5.1C44.7,897.5,43.1,895.5,39.9,895.5z"/>
</g>
<g>
</g>
<g>
	<path d="M51.2,769.2l-16.4-12.6v12.1h-1.4V754h1.9l16.4,12.6v-13h1.4v15.6H51.2z"/>
	<path d="M43.3,750.6c-6.4,0-10.1-3.5-10.1-8.1c0-4.7,3.8-8.1,10.1-8.1s10.1,3.4,10.1,8.1C53.4,747.2,49.6,750.6,43.3,750.6z
		 M43.3,737.1c-6.1,0-8.7,2.2-8.7,5.5s2.6,5.5,8.7,5.5c6,0,8.7-2.1,8.7-5.5S49.3,737.1,43.3,737.1z"/>
	<path d="M33.4,731V728l16.8-9.8H33.4v-1.9h19.7v2.9L36.3,729h16.8v1.9H33.4z"/>
	<path d="M33.4,711.3v-13.7h1.5v11.1h7.2v-11.1h1.5v11.1h8.1v-11.1h1.5v13.7H33.4z"/>
	<path d="M46.6,689.1l-2.8-4.7c-1.3-2.2-2.2-3.3-4.6-3.3c-2.8,0-4.1,1.8-4.1,4.5c0,2.8,1.1,5.1,5.2,5.3v2.6
		c-4.4-0.5-6.6-3.3-6.6-7.9c0-4.1,2.6-7.2,5.8-7.2c3,0,4.6,2,6.2,4.8l2.5,4.3c0.9,1.6,2,3.1,3.5,3v-12h1.5v15h-0.5
		C49.4,693.4,48,691.5,46.6,689.1z"/>
	<path d="M46.9,675.3v-2.7c3.4-0.1,5-2.6,5-5.9c0-3.1-1.4-5.2-4.2-5.2c-2.5,0-3.5,1.3-3.7,4.4l-0.2,3.1c-0.2,3.7-1.7,6-5,6
		c-3.5,0-5.7-3.3-5.7-7.5c0-4.8,2-7.7,6.4-8.2v2.7c-3.5,0.1-4.9,2.1-4.9,5.5c0,2.8,1.2,4.9,3.9,4.9c2.4,0,3.5-1.5,3.6-4.3l0.1-3
		c0.2-3.8,1.5-6.2,5.2-6.2c3.5,0,6,3.1,6,7.8C53.4,671.4,51.3,675.1,46.9,675.3z"/>
	<path d="M43.3,656.4c-6.4,0-10.1-3.5-10.1-8.1c0-4.7,3.8-8.1,10.1-8.1s10.1,3.4,10.1,8.1C53.4,652.9,49.6,656.4,43.3,656.4z
		 M43.3,642.8c-6.1,0-8.7,2.2-8.7,5.5s2.6,5.5,8.7,5.5c6,0,8.7-2.1,8.7-5.5S49.3,642.8,43.3,642.8z"/>
	<path d="M45.9,636.7H33.4v-2.6h13.2c3.7,0,5.3-1.7,5.3-4.8c0-3.1-1.6-4.8-5.3-4.8H33.4v-2.4h12.5c5.1,0,7.5,2.2,7.5,7.3
		S50.9,636.7,45.9,636.7z"/>
	<path d="M33.4,617.6v-8.3c0-3.7,2.2-6.2,5.1-6.2c2.4,0,3.9,1.4,4.5,3.8c0.5-2,1.6-2.9,3.7-2.9h1.5c1.9,0,4-0.4,4.9-1.2v3.1
		c-1,0.7-2.4,0.8-4.5,0.8h-1.7c-2.4,0-3.1,1.2-3.1,3.5v4.9h9.3v2.6H33.4z M38.6,605.8c-2.7,0-3.7,1.4-3.7,4.3v5h7.4v-4.7
		C42.3,607.1,41.3,605.8,38.6,605.8z"/>
	<path d="M43.3,599.5c-6.4,0-10.1-3.5-10.1-8.1c0-4.2,3.1-7.2,7.9-7.6v2.7c-4.3,0.3-6.4,2.2-6.4,5c0,3.3,2.6,5.5,8.7,5.5
		c6,0,8.7-2.2,8.7-5.5c0-2.8-2.1-4.7-6.4-5v-2.7c4.8,0.4,7.9,3.5,7.9,7.6C53.4,596,49.6,599.5,43.3,599.5z"/>
	<path d="M33.4,579.3v-13.7h1.5v11.1h7.2v-11.1h1.5v11.1h8.1v-11.1h1.5v13.7H33.4z"/>
</g>
<g>
	<path d="M3533.2,70.4v3l-19.7,7.1v-2.8l5.1-1.8v-8.8l-5.1-1.9v-2.1L3533.2,70.4z M3520.1,75.5l11-3.8l-11-4V75.5z"/>
	<path d="M3533.2,83.6v8.3c0,3.7-2.2,6.2-5.1,6.2c-2.4,0-3.9-1.4-4.5-3.8c-0.5,2-1.6,2.9-3.7,2.9h-1.5c-1.9,0-4,0.4-4.9,1.2v-3.1
		c1-0.7,2.4-0.8,4.5-0.8h1.7c2.4,0,3.1-1.2,3.1-3.5v-4.9h-9.3v-2.6H3533.2z M3528,95.5c2.7,0,3.7-1.4,3.7-4.3v-5h-7.4v4.7
		C3524.3,94.1,3525.3,95.5,3528,95.5z"/>
	<path d="M3531.7,108.2v-6.8h1.5v16.2h-1.5v-6.8h-18.2v-2.6H3531.7z"/>
	<path d="M3514.9,120.7v6.4h16.8v-6.4h1.5v15.4h-1.5v-6.4h-16.8v6.4h-1.5v-15.4H3514.9z"/>
	<path d="M3533.2,159.6v13.7h-1.5v-11.1h-7.2v11.1h-1.5v-11.1h-8.1v11.1h-1.5v-13.7H3533.2z"/>
	<path d="M3531.7,183.6v-6.8h1.5V193h-1.5v-6.8h-18.2v-2.6H3531.7z"/>
	<path d="M3533.2,221.3v3l-19.7,7.1v-2.8l5.1-1.8v-8.8l-5.1-1.9v-2.1L3533.2,221.3z M3520.1,226.3l11-3.8l-11-4V226.3z"/>
	<path d="M3531.2,235.5h-17.7v-1.6h19.7v3l-18.1,4.6l18.1,4.5v3h-19.7v-2h17.7l-17.7-4.4V240L3531.2,235.5z"/>
	<path d="M3514.9,252.7v6.4h16.8v-6.4h1.5V268h-1.5v-6.4h-16.8v6.4h-1.5v-15.4H3514.9z"/>
	<path d="M3523.3,271.4c6.4,0,10.1,3.5,10.1,8.1c0,4.2-3.1,7.2-7.9,7.6v-2.7c4.3-0.3,6.4-2.2,6.4-5c0-3.3-2.6-5.5-8.7-5.5
		c-6,0-8.7,2.2-8.7,5.5c0,2.8,2.1,4.7,6.4,5v2.7c-4.8-0.5-7.9-3.5-7.9-7.6C3513.2,274.9,3517,271.4,3523.3,271.4z"/>
	<path d="M3514.9,290.4v6.4h16.8v-6.4h1.5v15.4h-1.5v-6.4h-16.8v6.4h-1.5v-15.4H3514.9z"/>
	<path d="M3531.7,315.6v-6.8h1.5V325h-1.5v-6.8h-18.2v-2.6H3531.7z"/>
	<path d="M3514.9,328.1v6.4h16.8v-6.4h1.5v15.4h-1.5V337h-16.8v6.4h-1.5v-15.4H3514.9z"/>
	<path d="M3533.2,353.2v3l-19.7,7.1v-2.8l5.1-1.8v-8.8l-5.1-1.9v-2.1L3533.2,353.2z M3520.1,358.2l11-3.8l-11-4V358.2z"/>
	<path d="M3533.2,367v13.7h-1.5v-11.1h-7.2v11.1h-1.5v-11.1h-8.1v11.1h-1.5V367H3533.2z"/>
</g>
<g>
</g>
<g>
	<path d="M3531.2,626.3h-17.7v-1.6h19.7v3l-18.1,4.6l18.1,4.5v3h-19.7v-2h17.7l-17.7-4.4v-2.6L3531.2,626.3z"/>
	<path d="M3533.2,644.6v13.7h-1.5v-11.1h-7.2v11.1h-1.5v-11.1h-8.1v11.1h-1.5v-13.7H3533.2z"/>
	<path d="M3533.2,663v6.8c0,5-3.6,8.3-9.7,8.3c-6.2,0-10-3.3-10-8.3V663H3533.2z M3523.4,675.5c5.7,0,8.3-2.2,8.3-5.7v-4.2h-16.8
		v4.2C3514.9,673.3,3517.8,675.5,3523.4,675.5z"/>
	<path d="M3514.9,681.2v6.4h16.8v-6.4h1.5v15.4h-1.5v-6.4h-16.8v6.4h-1.5v-15.4H3514.9z"/>
	<path d="M3533.2,706.3v3l-19.7,7.1v-2.8l5.1-1.8V703l-5.1-1.9V699L3533.2,706.3z M3520.1,711.3l11-3.8l-11-4V711.3z"/>
	<path d="M3531.2,720.6h-17.7V719h19.7v3l-18.1,4.6l18.1,4.5v3h-19.7v-2h17.7l-17.7-4.4v-2.6L3531.2,720.6z"/>
	<path d="M3533.2,744v3l-19.7,7.1v-2.8l5.1-1.8v-8.8l-5.1-1.9v-2.1L3533.2,744z M3520.1,749l11-3.8l-11-4V749z"/>
	<path d="M3531.7,762.9v-6.8h1.5v16.2h-1.5v-6.8h-18.2v-2.6H3531.7z"/>
	<path d="M3514.9,775.4v6.4h16.8v-6.4h1.5v15.4h-1.5v-6.4h-16.8v6.4h-1.5v-15.4H3514.9z"/>
	<path d="M3523.3,794.2c6.4,0,10.1,3.5,10.1,8.1c0,4.2-3.1,7.2-7.9,7.6v-2.7c4.3-0.3,6.4-2.2,6.4-5c0-3.3-2.6-5.5-8.7-5.5
		c-6,0-8.7,2.2-8.7,5.5c0,2.8,2.1,4.7,6.4,5v2.7c-4.8-0.5-7.9-3.5-7.9-7.6C3513.2,797.6,3517,794.2,3523.3,794.2z"/>
</g>
<g>
</g>
<g>
</g>
<g>
	<path d="M3533.2,1294.8v13.2h-1.5v-10.6h-7.2v10.6h-1.5v-10.6h-9.5v-2.6H3533.2z"/>
	<path d="M3533.2,1312.7v8.3c0,3.7-2.2,6.2-5.1,6.2c-2.4,0-3.9-1.4-4.5-3.8c-0.5,2-1.6,2.9-3.7,2.9h-1.5c-1.9,0-4,0.4-4.9,1.2v-3.1
		c1-0.7,2.4-0.8,4.5-0.8h1.7c2.4,0,3.1-1.2,3.1-3.5v-4.9h-9.3v-2.6H3533.2z M3528,1324.6c2.7,0,3.7-1.4,3.7-4.3v-5h-7.4v4.7
		C3524.3,1323.2,3525.3,1324.6,3528,1324.6z"/>
	<path d="M3533.2,1337.3v3l-19.7,7.1v-2.8l5.1-1.8v-8.8l-5.1-1.9v-2.1L3533.2,1337.3z M3520.1,1342.3l11-3.8l-11-4V1342.3z"/>
	<path d="M3531.2,1351.5h-17.7v-1.6h19.7v3l-18.1,4.6l18.1,4.5v3h-19.7v-2h17.7l-17.7-4.4v-2.6L3531.2,1351.5z"/>
	<path d="M3533.2,1369.9v13.7h-1.5v-11.1h-7.2v11.1h-1.5v-11.1h-8.1v11.1h-1.5v-13.7H3533.2z"/>
	<path d="M3533.2,1388.2v8.3c0,3.7-2.2,6.2-5.1,6.2c-2.4,0-3.9-1.4-4.5-3.8c-0.5,2-1.6,2.9-3.7,2.9h-1.5c-1.9,0-4,0.4-4.9,1.2v-3.1
		c1-0.7,2.4-0.8,4.5-0.8h1.7c2.4,0,3.1-1.2,3.1-3.5v-4.9h-9.3v-2.6H3533.2z M3528,1400c2.7,0,3.7-1.4,3.7-4.3v-5h-7.4v4.7
		C3524.3,1398.6,3525.3,1400,3528,1400z"/>
	<path d="M3533.2,1426.8v13.2h-1.5v-10.6h-7.2v10.6h-1.5v-10.6h-9.5v-2.6H3533.2z"/>
	<path d="M3533.2,1444.7v8.3c0,3.7-2.2,6.2-5.1,6.2c-2.4,0-3.9-1.4-4.5-3.8c-0.5,2-1.6,2.9-3.7,2.9h-1.5c-1.9,0-4,0.4-4.9,1.2v-3.1
		c1-0.7,2.4-0.8,4.5-0.8h1.7c2.4,0,3.1-1.2,3.1-3.5v-4.9h-9.3v-2.6H3533.2z M3528,1456.6c2.7,0,3.7-1.4,3.7-4.3v-5h-7.4v4.7
		C3524.3,1455.2,3525.3,1456.6,3528,1456.6z"/>
	<path d="M3533.2,1469.2v3l-19.7,7.1v-2.8l5.1-1.8v-8.8l-5.1-1.9v-2.1L3533.2,1469.2z M3520.1,1474.2l11-3.8l-11-4V1474.2z"/>
	<path d="M3531.2,1483.5h-17.7v-1.6h19.7v3l-18.1,4.6l18.1,4.5v3h-19.7v-2h17.7l-17.7-4.4v-2.6L3531.2,1483.5z"/>
	<path d="M3533.2,1501.8v13.7h-1.5v-11.1h-7.2v11.1h-1.5v-11.1h-8.1v11.1h-1.5v-13.7H3533.2z"/>
	<path d="M3533.2,1520.2v6.8c0,5-3.6,8.3-9.7,8.3c-6.2,0-10-3.3-10-8.3v-6.8H3533.2z M3523.4,1532.6c5.7,0,8.3-2.2,8.3-5.7v-4.2
		h-16.8v4.2C3514.9,1530.5,3517.8,1532.6,3523.4,1532.6z"/>
</g>
<g>
	<path d="M989.5,45.1c0-6.4,3.5-10.1,8.1-10.1c4.7,0,8.1,3.8,8.1,10.1s-3.4,10.1-8.1,10.1C992.9,55.2,989.5,51.5,989.5,45.1z
		 M1003,45.1c0-6.1-2.2-8.7-5.5-8.7s-5.5,2.6-5.5,8.7c0,6,2.1,8.7,5.5,8.7S1003,51.2,1003,45.1z"/>
	<path d="M1009.1,47.7V35.3h2.6v13.2c0,3.7,1.7,5.3,4.8,5.3c3.1,0,4.8-1.6,4.8-5.3V35.3h2.4v12.5c0,5.1-2.2,7.5-7.3,7.5
		S1009.1,52.8,1009.1,47.7z"/>
	<path d="M1028.3,35.3h6.8c5,0,8.3,3.6,8.3,9.7c0,6.2-3.3,10-8.3,10h-6.8V35.3z M1040.8,45c0-5.7-2.2-8.3-5.7-8.3h-4.2v16.8h4.2
		C1038.6,53.5,1040.8,50.7,1040.8,45z"/>
	<path d="M1047.6,35.3h13.7v1.5h-11.1V44h11.1v1.5h-11.1v8.1h11.1V55h-13.7V35.3z"/>
	<path d="M1084.9,35.3h2.6v9.8l10.2-9.8h2.6l-8.1,7.7l8.2,12h-3.1l-6.9-10.3l-2.9,2.7V55h-2.6V35.3z"/>
	<path d="M1104.2,35.3h13.7v1.5h-11.1V44h11.1v1.5h-11.1v8.1h11.1V55h-13.7V35.3z"/>
	<path d="M1122.5,35.3h8.3c3.7,0,6.2,2.2,6.2,5.1c0,2.4-1.4,3.9-3.8,4.5c2,0.5,2.9,1.6,2.9,3.7v1.5c0,1.9,0.4,4,1.2,4.9h-3.1
		c-0.7-1-0.8-2.4-0.8-4.5v-1.7c0-2.4-1.2-3.1-3.5-3.1h-4.9V55h-2.6V35.3z M1134.3,40.4c0-2.7-1.4-3.7-4.3-3.7h-5v7.4h4.7
		C1133,44.2,1134.3,43.1,1134.3,40.4z"/>
	<path d="M1141.4,35.3h2.6v9.8l10.2-9.8h2.6l-8.1,7.7l8.2,12h-3.1l-6.9-10.3l-2.9,2.7V55h-2.6V35.3z"/>
</g>
<g>
</g>
<g>
	<path d="M1533.4,45.1c0-6.4,3.5-10.1,8.1-10.1c4.1,0,7.1,2.9,7.6,7.3h-2.7c-0.3-4-2.1-5.9-4.9-5.9c-3.3,0-5.5,2.6-5.5,8.7
		c0,6,2.2,8.7,5.5,8.7c3.1,0,4.9-2.4,4.9-6.6v-0.6h-4.9v-1.5h7.6v1.6c0,5-2.9,8.5-7.6,8.5C1536.8,55.2,1533.4,51.5,1533.4,45.1z"/>
	<path d="M1558.7,35.3h3l7.1,19.7h-2.8l-1.8-5.1h-8.8l-1.9,5.1h-2.1L1558.7,35.3z M1563.7,48.3l-3.8-11l-4,11H1563.7z"/>
	<path d="M1571.9,35.3h8.3c3.7,0,6.2,2.2,6.2,5.1c0,2.4-1.4,3.9-3.8,4.5c2,0.5,2.9,1.6,2.9,3.7v1.5c0,1.9,0.4,4,1.2,4.9h-3.1
		c-0.7-1-0.8-2.4-0.8-4.5v-1.7c0-2.4-1.2-3.1-3.5-3.1h-4.9V55h-2.6V35.3z M1583.8,40.4c0-2.7-1.4-3.7-4.3-3.7h-5v7.4h4.7
		C1582.4,44.2,1583.8,43.1,1583.8,40.4z"/>
	<path d="M1596.4,35.3h3l7.1,19.7h-2.8l-1.8-5.1h-8.8l-1.9,5.1h-2.1L1596.4,35.3z M1601.4,48.3l-3.8-11l-4,11H1601.4z"/>
	<path d="M1608.8,45.1c0-6.4,3.5-10.1,8.1-10.1c4.1,0,7.1,2.9,7.6,7.3h-2.7c-0.3-4-2.1-5.9-4.9-5.9c-3.3,0-5.5,2.6-5.5,8.7
		c0,6,2.2,8.7,5.5,8.7c3.1,0,4.9-2.4,4.9-6.6v-0.6h-4.9v-1.5h7.6v1.6c0,5-2.9,8.5-7.6,8.5C1612.2,55.2,1608.8,51.5,1608.8,45.1z"/>
	<path d="M1629,35.3h13.7v1.5h-11.1V44h11.1v1.5h-11.1v8.1h11.1V55H1629V35.3z"/>
	<path d="M1665.9,35.3h2.9l9.8,16.8V35.3h1.9V55h-2.9l-9.8-16.8V55h-1.9V35.3z"/>
	<path d="M1684,45.1c0-6.4,3.5-10.1,8.1-10.1c4.7,0,8.1,3.8,8.1,10.1s-3.4,10.1-8.1,10.1C1687.4,55.2,1684,51.5,1684,45.1z
		 M1697.6,45.1c0-6.1-2.2-8.7-5.5-8.7s-5.5,2.6-5.5,8.7c0,6,2.1,8.7,5.5,8.7S1697.6,51.2,1697.6,45.1z"/>
	<path d="M1702.8,45.1c0-6.4,3.5-10.1,8.1-10.1c4.7,0,8.1,3.8,8.1,10.1s-3.4,10.1-8.1,10.1C1706.3,55.2,1702.8,51.5,1702.8,45.1z
		 M1716.4,45.1c0-6.1-2.2-8.7-5.5-8.7s-5.5,2.6-5.5,8.7c0,6,2.1,8.7,5.5,8.7S1716.4,51.2,1716.4,45.1z"/>
	<path d="M1722.7,35.3h8.3c3.7,0,6.2,2.2,6.2,5.1c0,2.4-1.4,3.9-3.8,4.5c2,0.5,2.9,1.6,2.9,3.7v1.5c0,1.9,0.4,4,1.2,4.9h-3.1
		c-0.7-1-0.8-2.4-0.8-4.5v-1.7c0-2.4-1.2-3.1-3.5-3.1h-4.9V55h-2.6V35.3z M1734.6,40.4c0-2.7-1.4-3.7-4.3-3.7h-5v7.4h4.7
		C1733.2,44.2,1734.6,43.1,1734.6,40.4z"/>
	<path d="M1741.6,35.3h6.8c5,0,8.3,3.6,8.3,9.7c0,6.2-3.3,10-8.3,10h-6.8V35.3z M1754.1,45c0-5.7-2.2-8.3-5.7-8.3h-4.2v16.8h4.2
		C1751.9,53.5,1754.1,50.7,1754.1,45z"/>
</g>
<g>
	<path d="M2108.1,35.3h2.6v8.8h9.4v-8.8h2.6V55h-2.6v-9.4h-9.4V55h-2.6V35.3z"/>
	<path d="M2127.8,35.3h13.7v1.5h-11.1V44h11.1v1.5h-11.1v8.1h11.1V55h-13.7V35.3z"/>
	<path d="M2151.8,36.7h-6.8v-1.5h16.2v1.5h-6.8V55h-2.6V36.7z"/>
	<path d="M2182.9,35.3h6.8c5,0,8.3,3.6,8.3,9.7c0,6.2-3.3,10-8.3,10h-6.8V35.3z M2195.4,45c0-5.7-2.2-8.3-5.7-8.3h-4.2v16.8h4.2
		C2193.2,53.5,2195.4,50.7,2195.4,45z"/>
	<path d="M2200.6,45.1c0-6.4,3.5-10.1,8.1-10.1c4.7,0,8.1,3.8,8.1,10.1s-3.4,10.1-8.1,10.1C2204.1,55.2,2200.6,51.5,2200.6,45.1z
		 M2214.2,45.1c0-6.1-2.2-8.7-5.5-8.7s-5.5,2.6-5.5,8.7c0,6,2.1,8.7,5.5,8.7S2214.2,51.2,2214.2,45.1z"/>
	<path d="M2219.8,45.1c0-6.4,3.5-10.1,8.1-10.1c4.2,0,7.2,3.1,7.6,7.9h-2.7c-0.3-4.3-2.2-6.4-5-6.4c-3.3,0-5.5,2.6-5.5,8.7
		c0,6,2.2,8.7,5.5,8.7c2.8,0,4.7-2.1,5-6.4h2.7c-0.4,4.8-3.5,7.9-7.6,7.9C2223.2,55.2,2219.8,51.5,2219.8,45.1z"/>
	<path d="M2239.1,47.7V35.3h2.6v13.2c0,3.7,1.7,5.3,4.8,5.3c3.1,0,4.8-1.6,4.8-5.3V35.3h2.4v12.5c0,5.1-2.2,7.5-7.3,7.5
		C2241.3,55.2,2239.1,52.8,2239.1,47.7z"/>
	<path d="M2259.3,37.2V55h-1.6V35.3h3l4.6,18.1l4.5-18.1h3V55h-2V37.2l-4.4,17.7h-2.6L2259.3,37.2z"/>
	<path d="M2277.7,35.3h13.7v1.5h-11.1V44h11.1v1.5h-11.1v8.1h11.1V55h-13.7V35.3z"/>
	<path d="M2295.7,35.3h2.9l9.8,16.8V35.3h1.9V55h-2.9l-9.8-16.8V55h-1.9V35.3z"/>
	<path d="M2320.5,36.7h-6.8v-1.5h16.2v1.5h-6.8V55h-2.6V36.7z"/>
	<path d="M2339.3,35.3h3l7.1,19.7h-2.8l-1.8-5.1h-8.8l-1.9,5.1h-2.1L2339.3,35.3z M2344.3,48.3l-3.8-11l-4,11H2344.3z"/>
	<path d="M2351.8,53.5h6.4V36.7h-6.4v-1.5h15.4v1.5h-6.4v16.8h6.4V55h-15.4V53.5z"/>
	<path d="M2371.3,35.3h8.3c3.7,0,6.2,2.2,6.2,5.1c0,2.4-1.4,3.9-3.8,4.5c2,0.5,2.9,1.6,2.9,3.7v1.5c0,1.9,0.4,4,1.2,4.9h-3.1
		c-0.7-1-0.8-2.4-0.8-4.5v-1.7c0-2.4-1.2-3.1-3.5-3.1h-4.9V55h-2.6V35.3z M2383.2,40.4c0-2.7-1.4-3.7-4.3-3.7h-5v7.4h4.7
		C2381.8,44.2,2383.2,43.1,2383.2,40.4z"/>
	<path d="M2390.7,35.3h13.7v1.5h-11.1V44h11.1v1.5h-11.1v8.1h11.1V55h-13.7V35.3z"/>
	<path d="M2427,35.3h8.7c4.2,0,6.6,2.4,6.6,5.6c0,3.1-2.4,5.6-6.6,5.6h-6.1V55h-2.6V35.3z M2439.5,40.9c0-2.9-1.5-4.1-4.6-4.1h-5.3
		V45h5.3C2438,45,2439.5,43.8,2439.5,40.9z"/>
	<path d="M2451.4,35.3h3l7.1,19.7h-2.8l-1.8-5.1h-8.8l-1.9,5.1h-2.1L2451.4,35.3z M2456.4,48.3l-3.8-11l-4,11H2456.4z"/>
	<path d="M2463,35.3h2.8l6.1,17.8l6.3-17.8h2.1l-7.2,19.7h-3L2463,35.3z"/>
	<path d="M2482.9,53.5h6.4V36.7h-6.4v-1.5h15.4v1.5h-6.4v16.8h6.4V55h-15.4V53.5z"/>
	<path d="M2503.1,35.3h2.6v18.2h11.4V55h-14V35.3z"/>
	<path d="M2520.7,48.8h2.7c0.3,3.5,1.8,5,4.6,5c2.8,0,4.4-1.5,4.4-5.5v-13h2.6v13.2c0,5-3.3,6.8-7,6.8
		C2524.3,55.2,2521.2,53.5,2520.7,48.8z"/>
	<path d="M2539,45.1c0-6.4,3.5-10.1,8.1-10.1c4.7,0,8.1,3.8,8.1,10.1s-3.4,10.1-8.1,10.1C2542.4,55.2,2539,51.5,2539,45.1z
		 M2552.5,45.1c0-6.1-2.2-8.7-5.5-8.7s-5.5,2.6-5.5,8.7c0,6,2.1,8.7,5.5,8.7S2552.5,51.2,2552.5,45.1z"/>
	<path d="M2559.4,35.3h13.7v1.5H2562V44h11.1v1.5H2562v8.1h11.1V55h-13.7V35.3z"/>
	<path d="M2577.5,35.3h2.9l9.8,16.8V35.3h1.9V55h-2.9l-9.8-16.8V55h-1.9V35.3z"/>
	<path d="M2607.2,35.3h2.4L2600,55h-2.4L2607.2,35.3z"/>
	<path d="M2614.8,53.5h6.4V36.7h-6.4v-1.5h15.4v1.5h-6.4v16.8h6.4V55h-15.4V53.5z"/>
	<path d="M2634.3,35.3h6.8c5,0,8.3,3.6,8.3,9.7c0,6.2-3.3,10-8.3,10h-6.8V35.3z M2646.8,45c0-5.7-2.2-8.3-5.7-8.3h-4.2v16.8h4.2
		C2644.6,53.5,2646.8,50.7,2646.8,45z"/>
	<path d="M2654,35.3h13.2v1.5h-10.6V44h10.6v1.5h-10.6V55h-2.6V35.3z"/>
	<path d="M2677.6,35.3h3l7.1,19.7h-2.8l-1.8-5.1h-8.8l-1.9,5.1h-2.1L2677.6,35.3z M2682.6,48.3l-3.8-11l-4,11H2682.6z"/>
	<path d="M2708.1,53.5h6.4V36.7h-6.4v-1.5h15.4v1.5h-6.4v16.8h6.4V55h-15.4V53.5z"/>
	<path d="M2727.3,35.3h2.9L2740,52V35.3h1.9V55h-2.9l-9.8-16.8V55h-1.9V35.3z"/>
	<path d="M2745.3,48.8h2.7c0.1,3.4,2.6,5,5.9,5c3.1,0,5.2-1.4,5.2-4.2c0-2.5-1.3-3.5-4.4-3.7l-3.1-0.2c-3.7-0.2-6-1.7-6-5
		c0-3.5,3.3-5.7,7.5-5.7c4.8,0,7.7,2,8.2,6.4h-2.7c-0.1-3.5-2.1-4.9-5.5-4.9c-2.8,0-4.9,1.2-4.9,3.9c0,2.4,1.5,3.5,4.3,3.6l3,0.1
		c3.8,0.2,6.2,1.5,6.2,5.2c0,3.5-3.1,6-7.8,6C2749.2,55.2,2745.5,53.1,2745.3,48.8z"/>
	<path d="M2771,36.7h-6.8v-1.5h16.2v1.5h-6.8V55h-2.6V36.7z"/>
	<path d="M2783.5,53.5h6.4V36.7h-6.4v-1.5h15.4v1.5h-6.4v16.8h6.4V55h-15.4V53.5z"/>
	<path d="M2808.7,36.7h-6.8v-1.5h16.2v1.5h-6.8V55h-2.6V36.7z"/>
	<path d="M2821.6,47.7V35.3h2.6v13.2c0,3.7,1.7,5.3,4.8,5.3c3.1,0,4.8-1.6,4.8-5.3V35.3h2.4v12.5c0,5.1-2.2,7.5-7.3,7.5
		C2823.8,55.2,2821.6,52.8,2821.6,47.7z"/>
	<path d="M2846.4,36.7h-6.8v-1.5h16.2v1.5h-6.8V55h-2.6V36.7z"/>
	<path d="M2860.1,35.3h13.7v1.5h-11.1V44h11.1v1.5h-11.1v8.1h11.1V55h-13.7V35.3z"/>
</g>
<path d="M944,86.6h8.3c3.7,0,6.2,2.2,6.2,5.1c0,2.4-1.4,3.9-3.8,4.5c2,0.5,2.9,1.6,2.9,3.7v1.5c0,1.9,0.4,4,1.2,4.9h-3.1
	c-0.7-1-0.8-2.4-0.8-4.5v-1.7c0-2.4-1.2-3.1-3.5-3.1h-4.9v9.3H944V86.6z M955.9,91.8c0-2.7-1.4-3.7-4.3-3.7h-5v7.4h4.7
	C954.5,95.5,955.9,94.5,955.9,91.8z M961.8,96.5c0-6.4,3.5-10.1,8.1-10.1c4.7,0,8.1,3.8,8.1,10.1c0,6.4-3.4,10.1-8.1,10.1
	C965.3,106.6,961.8,102.8,961.8,96.5z M975.4,96.5c0-6.1-2.2-8.7-5.5-8.7s-5.5,2.6-5.5,8.7c0,6,2.1,8.7,5.5,8.7
	S975.4,102.5,975.4,96.5z M981,104.4L993.5,88h-12.1v-1.4h14.8v1.9l-12.6,16.4h13v1.4H981V104.4z M1001.2,86.6h13.7v1.5h-11.1v7.2
	h11.1v1.5h-11.1v8.1h11.1v1.5h-13.7V86.6z M1019.2,86.6h2.9l9.8,16.8V86.6h1.9v19.7h-2.9l-9.8-16.8v16.8h-1.9V86.6z M1037.1,100.2
	h2.7c0.1,3.4,2.6,5,5.9,5c3.1,0,5.2-1.4,5.2-4.2c0-2.5-1.3-3.5-4.4-3.7l-3.1-0.2c-3.7-0.2-6-1.7-6-5c0-3.5,3.3-5.7,7.5-5.7
	c4.8,0,7.7,2,8.2,6.4h-2.7c-0.1-3.5-2.1-4.9-5.5-4.9c-2.8,0-4.9,1.2-4.9,3.9c0,2.4,1.5,3.5,4.3,3.6l3,0.1c3.8,0.2,6.2,1.5,6.2,5.2
	c0,3.5-3.1,6-7.8,6C1041,106.6,1037.3,104.5,1037.1,100.2z M1062.9,88.1h-6.8v-1.5h16.2v1.5h-6.8v18.2h-2.6V88.1z M1075.9,86.6h8.3
	c3.7,0,6.2,2.2,6.2,5.1c0,2.4-1.4,3.9-3.8,4.5c2,0.5,2.9,1.6,2.9,3.7v1.5c0,1.9,0.4,4,1.2,4.9h-3.1c-0.7-1-0.8-2.4-0.8-4.5v-1.7
	c0-2.4-1.2-3.1-3.5-3.1h-4.9v9.3h-2.6V86.6z M1087.8,91.8c0-2.7-1.4-3.7-4.3-3.7h-5v7.4h4.7C1086.4,95.5,1087.8,94.5,1087.8,91.8z
	 M1100.5,86.6h3l7.1,19.7h-2.8l-1.8-5.1h-8.8l-1.9,5.1h-2.1L1100.5,86.6z M1105.5,99.7l-3.8-11l-4,11H1105.5z M1119.3,86.6h3
	l7.1,19.7h-2.8l-1.8-5.1h-8.8l-1.9,5.1h-2.1L1119.3,86.6z M1124.3,99.7l-3.8-11l-4,11H1124.3z M1138.2,88.1h-6.8v-1.5h16.2v1.5h-6.8
	v18.2h-2.6V88.1z M1172.8,95.7h12.4v1.5h-12.4V95.7z M1217.1,86.6h3l7.1,19.7h-2.8l-1.8-5.1h-8.8l-1.9,5.1h-2.1L1217.1,86.6z
	 M1222.1,99.7l-3.8-11l-4,11H1222.1z M1250.8,86.6h8.3c3.7,0,6.2,2.2,6.2,5.1c0,2.4-1.4,3.9-3.8,4.5c2,0.5,2.9,1.6,2.9,3.7v1.5
	c0,1.9,0.4,4,1.2,4.9h-3.1c-0.7-1-0.8-2.4-0.8-4.5v-1.7c0-2.4-1.2-3.1-3.5-3.1h-4.9v9.3h-2.6V86.6z M1262.7,91.8
	c0-2.7-1.4-3.7-4.3-3.7h-5v7.4h4.7C1261.3,95.5,1262.7,94.5,1262.7,91.8z M1268.6,96.5c0-6.4,3.5-10.1,8.1-10.1
	c4.7,0,8.1,3.8,8.1,10.1c0,6.4-3.4,10.1-8.1,10.1C1272.1,106.6,1268.6,102.8,1268.6,96.5z M1282.2,96.5c0-6.1-2.2-8.7-5.5-8.7
	c-3.3,0-5.5,2.6-5.5,8.7c0,6,2.1,8.7,5.5,8.7C1280.1,105.1,1282.2,102.5,1282.2,96.5z M1287.4,100.2h2.7c0.1,3.4,2.6,5,5.9,5
	c3.1,0,5.2-1.4,5.2-4.2c0-2.5-1.3-3.5-4.4-3.7l-3.1-0.2c-3.7-0.2-6-1.7-6-5c0-3.5,3.3-5.7,7.5-5.7c4.8,0,7.7,2,8.2,6.4h-2.7
	c-0.1-3.5-2.1-4.9-5.5-4.9c-2.8,0-4.9,1.2-4.9,3.9c0,2.4,1.5,3.5,4.3,3.6l3,0.1c3.8,0.2,6.2,1.5,6.2,5.2c0,3.5-3.1,6-7.8,6
	C1291.3,106.6,1287.6,104.5,1287.4,100.2z M1308,86.6h13.7v1.5h-11.1v7.2h11.1v1.5h-11.1v8.1h11.1v1.5H1308V86.6z M1346.2,104.8h6.4
	V88.1h-6.4v-1.5h15.4v1.5h-6.4v16.8h6.4v1.5h-15.4V104.8z M1364.5,100.2h2.7c0.1,3.4,2.6,5,5.9,5c3.1,0,5.2-1.4,5.2-4.2
	c0-2.5-1.3-3.5-4.4-3.7l-3.1-0.2c-3.7-0.2-6-1.7-6-5c0-3.5,3.3-5.7,7.5-5.7c4.8,0,7.7,2,8.2,6.4h-2.7c-0.1-3.5-2.1-4.9-5.5-4.9
	c-2.8,0-4.9,1.2-4.9,3.9c0,2.4,1.5,3.5,4.3,3.6l3,0.1c3.8,0.2,6.2,1.5,6.2,5.2c0,3.5-3.1,6-7.8,6
	C1368.5,106.6,1364.7,104.5,1364.5,100.2z M1410.8,86.6h3l7.1,19.7h-2.8l-1.8-5.1h-8.8l-1.9,5.1h-2.1L1410.8,86.6z M1415.8,99.7
	l-3.8-11l-4,11H1415.8z M1444.6,86.6h8.3c3.7,0,6.2,2.2,6.2,5.1c0,2.4-1.4,3.9-3.8,4.5c2,0.5,2.9,1.6,2.9,3.7v1.5
	c0,1.9,0.4,4,1.2,4.9h-3.1c-0.7-1-0.8-2.4-0.8-4.5v-1.7c0-2.4-1.2-3.1-3.5-3.1h-4.9v9.3h-2.6V86.6z M1456.5,91.8
	c0-2.7-1.4-3.7-4.3-3.7h-5v7.4h4.7C1455.1,95.5,1456.5,94.5,1456.5,91.8z M1462.4,96.5c0-6.4,3.5-10.1,8.1-10.1
	c4.7,0,8.1,3.8,8.1,10.1c0,6.4-3.4,10.1-8.1,10.1C1465.9,106.6,1462.4,102.8,1462.4,96.5z M1476,96.5c0-6.1-2.2-8.7-5.5-8.7
	c-3.3,0-5.5,2.6-5.5,8.7c0,6,2.1,8.7,5.5,8.7C1473.8,105.1,1476,102.5,1476,96.5z M1481.1,100.2h2.7c0.1,3.4,2.6,5,5.9,5
	c3.1,0,5.2-1.4,5.2-4.2c0-2.5-1.3-3.5-4.4-3.7l-3.1-0.2c-3.7-0.2-6-1.7-6-5c0-3.5,3.3-5.7,7.5-5.7c4.8,0,7.7,2,8.2,6.4h-2.7
	c-0.1-3.5-2.1-4.9-5.5-4.9c-2.8,0-4.9,1.2-4.9,3.9c0,2.4,1.5,3.5,4.3,3.6l3,0.1c3.8,0.2,6.2,1.5,6.2,5.2c0,3.5-3.1,6-7.8,6
	C1485.1,106.6,1481.3,104.5,1481.1,100.2z M1501.7,86.6h13.7v1.5h-11.1v7.2h11.1v1.5h-11.1v8.1h11.1v1.5h-13.7V86.6z M1540,104.8
	h6.4V88.1h-6.4v-1.5h15.4v1.5h-6.4v16.8h6.4v1.5H1540V104.8z M1558.3,100.2h2.7c0.1,3.4,2.6,5,5.9,5c3.1,0,5.2-1.4,5.2-4.2
	c0-2.5-1.3-3.5-4.4-3.7l-3.1-0.2c-3.7-0.2-6-1.7-6-5c0-3.5,3.3-5.7,7.5-5.7c4.8,0,7.7,2,8.2,6.4h-2.7c-0.1-3.5-2.1-4.9-5.5-4.9
	c-2.8,0-4.9,1.2-4.9,3.9c0,2.4,1.5,3.5,4.3,3.6l3,0.1c3.8,0.2,6.2,1.5,6.2,5.2c0,3.5-3.1,6-7.8,6
	C1562.2,106.6,1558.5,104.5,1558.3,100.2z M1604.6,86.6h3l7.1,19.7h-2.8l-1.8-5.1h-8.8l-1.9,5.1h-2.1L1604.6,86.6z M1609.6,99.7
	l-3.8-11l-4,11H1609.6z M1638.3,86.6h8.3c3.7,0,6.2,2.2,6.2,5.1c0,2.4-1.4,3.9-3.8,4.5c2,0.5,2.9,1.6,2.9,3.7v1.5
	c0,1.9,0.4,4,1.2,4.9h-3.1c-0.7-1-0.8-2.4-0.8-4.5v-1.7c0-2.4-1.2-3.1-3.5-3.1h-4.9v9.3h-2.6V86.6z M1650.2,91.8
	c0-2.7-1.4-3.7-4.3-3.7h-5v7.4h4.7C1648.8,95.5,1650.2,94.5,1650.2,91.8z M1656.1,96.5c0-6.4,3.5-10.1,8.1-10.1
	c4.7,0,8.1,3.8,8.1,10.1c0,6.4-3.4,10.1-8.1,10.1C1659.6,106.6,1656.1,102.8,1656.1,96.5z M1669.7,96.5c0-6.1-2.2-8.7-5.5-8.7
	c-3.3,0-5.5,2.6-5.5,8.7c0,6,2.1,8.7,5.5,8.7C1667.6,105.1,1669.7,102.5,1669.7,96.5z M1674.9,100.2h2.7c0.1,3.4,2.6,5,5.9,5
	c3.1,0,5.2-1.4,5.2-4.2c0-2.5-1.3-3.5-4.4-3.7l-3.1-0.2c-3.7-0.2-6-1.7-6-5c0-3.5,3.3-5.7,7.5-5.7c4.8,0,7.7,2,8.2,6.4h-2.7
	c-0.1-3.5-2.1-4.9-5.5-4.9c-2.8,0-4.9,1.2-4.9,3.9c0,2.4,1.5,3.5,4.3,3.6l3,0.1c3.8,0.2,6.2,1.5,6.2,5.2c0,3.5-3.1,6-7.8,6
	C1678.8,106.6,1675.1,104.5,1674.9,100.2z M1695.5,86.6h13.7v1.5h-11.1v7.2h11.1v1.5h-11.1v8.1h11.1v1.5h-13.7V86.6z"/>
<g>
	<path d="M2501,86.6h6.8c5,0,8.3,3.6,8.3,9.7c0,6.2-3.3,10-8.3,10h-6.8V86.6z M2513.5,96.4c0-5.7-2.2-8.3-5.7-8.3h-4.2v16.8h4.2
		C2511.3,104.8,2513.5,102,2513.5,96.4z"/>
	<path d="M2520.4,86.6h13.7v1.5h-11.1v7.2h11.1v1.5h-11.1v8.1h11.1v1.5h-13.7V86.6z"/>
	<path d="M2563.1,86.6h3l7.1,19.7h-2.8l-1.8-5.1h-8.8l-1.9,5.1h-2.1L2563.1,86.6z M2568.1,99.7l-3.8-11l-4,11H2568.1z"/>
	<path d="M2582.1,88.1h-6.8v-1.5h16.2v1.5h-6.8v18.2h-2.6V88.1z"/>
	<path d="M2595.8,86.6h13.7v1.5h-11.1v7.2h11.1v1.5h-11.1v8.1h11.1v1.5h-13.7V86.6z"/>
	<path d="M2614.8,86.6h2.6v18.2h11.4v1.5h-14V86.6z"/>
	<path d="M2632.2,104.8h6.4V88.1h-6.4v-1.5h15.4v1.5h-6.4v16.8h6.4v1.5h-15.4V104.8z"/>
	<path d="M2652.3,86.6h13.7v1.5h-11.1v7.2h11.1v1.5h-11.1v8.1h11.1v1.5h-13.7V86.6z"/>
	<path d="M2670.5,86.6h8.3c3.7,0,6.2,2.2,6.2,5.1c0,2.4-1.4,3.9-3.8,4.5c2,0.5,2.9,1.6,2.9,3.7v1.5c0,1.9,0.4,4,1.2,4.9h-3.1
		c-0.7-1-0.8-2.4-0.8-4.5v-1.7c0-2.4-1.2-3.1-3.5-3.1h-4.9v9.3h-2.6V86.6z M2682.4,91.8c0-2.7-1.4-3.7-4.3-3.7h-5v7.4h4.7
		C2681,95.5,2682.4,94.5,2682.4,91.8z"/>
	<path d="M2688.3,100.2h2.7c0.1,3.4,2.6,5,5.9,5c3.1,0,5.2-1.4,5.2-4.2c0-2.5-1.3-3.5-4.4-3.7l-3.1-0.2c-3.7-0.2-6-1.7-6-5
		c0-3.5,3.3-5.7,7.5-5.7c4.8,0,7.7,2,8.2,6.4h-2.7c-0.1-3.5-2.1-4.9-5.5-4.9c-2.8,0-4.9,1.2-4.9,3.9c0,2.4,1.5,3.5,4.3,3.6l3,0.1
		c3.8,0.2,6.2,1.5,6.2,5.2c0,3.5-3.1,6-7.8,6C2692.2,106.6,2688.5,104.5,2688.3,100.2z"/>
	<path d="M2718.9,86.6h2.4l-9.6,19.7h-2.4L2718.9,86.6z"/>
	<path d="M2725.9,86.6h2l2.5,17.4l2.7-17.4h2.6l2.8,17.3l2.4-17.3h1.6l-2.9,19.7h-2.6l-2.8-17.5l-2.6,17.5h-2.6L2725.9,86.6z"/>
	<path d="M2744.9,96.5c0-6.4,3.5-10.1,8.1-10.1c4.7,0,8.1,3.8,8.1,10.1s-3.4,10.1-8.1,10.1C2748.4,106.6,2744.9,102.8,2744.9,96.5z
		 M2758.5,96.5c0-6.1-2.2-8.7-5.5-8.7s-5.5,2.6-5.5,8.7c0,6,2.1,8.7,5.5,8.7S2758.5,102.5,2758.5,96.5z"/>
	<path d="M2763.7,96.5c0-6.4,3.5-10.1,8.1-10.1c4.7,0,8.1,3.8,8.1,10.1s-3.4,10.1-8.1,10.1C2767.2,106.6,2763.7,102.8,2763.7,96.5z
		 M2777.3,96.5c0-6.1-2.2-8.7-5.5-8.7s-5.5,2.6-5.5,8.7c0,6,2.1,8.7,5.5,8.7S2777.3,102.5,2777.3,96.5z"/>
	<path d="M2783.4,86.6h2.9l9.8,16.8V86.6h1.9v19.7h-2.9l-9.8-16.8v16.8h-1.9V86.6z"/>
	<path d="M2802.2,86.6h2.6v8.8h9.4v-8.8h2.6v19.7h-2.6v-9.4h-9.4v9.4h-2.6V86.6z"/>
	<path d="M2821.1,99.1V86.6h2.6v13.2c0,3.7,1.7,5.3,4.8,5.3c3.1,0,4.8-1.6,4.8-5.3V86.6h2.4v12.5c0,5.1-2.2,7.5-7.3,7.5
		S2821.1,104.1,2821.1,99.1z"/>
	<path d="M2839.5,104.8h6.4V88.1h-6.4v-1.5h15.4v1.5h-6.4v16.8h6.4v1.5h-15.4V104.8z"/>
	<path d="M2857.9,100.2h2.7c0.1,3.4,2.6,5,5.9,5c3.1,0,5.2-1.4,5.2-4.2c0-2.5-1.3-3.5-4.4-3.7l-3.1-0.2c-3.7-0.2-6-1.7-6-5
		c0-3.5,3.3-5.7,7.5-5.7c4.8,0,7.7,2,8.2,6.4h-2.7c-0.1-3.5-2.1-4.9-5.5-4.9c-2.8,0-4.9,1.2-4.9,3.9c0,2.4,1.5,3.5,4.3,3.6l3,0.1
		c3.8,0.2,6.2,1.5,6.2,5.2c0,3.5-3.1,6-7.8,6C2861.8,106.6,2858.1,104.5,2857.9,100.2z"/>
</g>
<g>
</g>
<g>
	<path d="M3150.9,100.2h2.7c0.1,3.4,2.6,5,5.9,5c3.1,0,5.2-1.4,5.2-4.2c0-2.5-1.3-3.5-4.4-3.7l-3.1-0.2c-3.7-0.2-6-1.7-6-5
		c0-3.5,3.3-5.7,7.5-5.7c4.8,0,7.7,2,8.2,6.4h-2.7c-0.1-3.5-2.1-4.9-5.5-4.9c-2.8,0-4.9,1.2-4.9,3.9c0,2.4,1.5,3.5,4.3,3.6l3,0.1
		c3.8,0.2,6.2,1.5,6.2,5.2c0,3.5-3.1,6-7.8,6C3154.8,106.6,3151.1,104.5,3150.9,100.2z"/>
	<path d="M3170.2,104.8h6.4V88.1h-6.4v-1.5h15.4v1.5h-6.4v16.8h6.4v1.5h-15.4V104.8z"/>
	<path d="M3189.5,86.6h2.9l9.8,16.8V86.6h1.9v19.7h-2.9l-9.8-16.8v16.8h-1.9V86.6z"/>
	<path d="M3207.7,96.5c0-6.4,3.5-10.1,8.1-10.1c4.1,0,7.1,2.9,7.6,7.3h-2.7c-0.3-4-2.1-5.9-4.9-5.9c-3.3,0-5.5,2.6-5.5,8.7
		c0,6,2.2,8.7,5.5,8.7c3.1,0,4.9-2.4,4.9-6.6v-0.6h-4.9v-1.5h7.6v1.6c0,5-2.9,8.5-7.6,8.5C3211.2,106.6,3207.7,102.8,3207.7,96.5z"
		/>
	<path d="M3228,86.6h13.7v1.5h-11.1v7.2h11.1v1.5h-11.1v8.1h11.1v1.5H3228V86.6z"/>
	<path d="M3247,86.6h2.6v18.2h11.4v1.5h-14V86.6z"/>
	<path d="M3265.2,86.6h2.6v9.8l10.2-9.8h2.6l-8.1,7.7l8.2,12h-3.1l-6.9-10.3l-2.9,2.7v7.6h-2.6V86.6z"/>
	<path d="M3284.5,86.6h13.7v1.5h-11.1v7.2h11.1v1.5h-11.1v8.1h11.1v1.5h-13.7V86.6z"/>
	<path d="M3302.8,86.6h8.3c3.7,0,6.2,2.2,6.2,5.1c0,2.4-1.4,3.9-3.8,4.5c2,0.5,2.9,1.6,2.9,3.7v1.5c0,1.9,0.4,4,1.2,4.9h-3.1
		c-0.7-1-0.8-2.4-0.8-4.5v-1.7c0-2.4-1.2-3.1-3.5-3.1h-4.9v9.3h-2.6V86.6z M3314.7,91.8c0-2.7-1.4-3.7-4.3-3.7h-5v7.4h4.7
		C3313.3,95.5,3314.7,94.5,3314.7,91.8z"/>
	<path d="M3321.7,86.6h2.6v9.8l10.2-9.8h2.6l-8.1,7.7l8.2,12h-3.1l-6.9-10.3l-2.9,2.7v7.6h-2.6V86.6z"/>
</g>
<g>
	<path d="M3474.7,739.2v2.7c-3.4,0.1-5,2.6-5,5.9c0,3.1,1.4,5.2,4.2,5.2c2.5,0,3.5-1.3,3.7-4.4l0.2-3.1c0.2-3.7,1.7-6,5-6
		c3.5,0,5.7,3.3,5.7,7.5c0,4.8-2,7.7-6.4,8.2v-2.7c3.5-0.1,4.9-2.1,4.9-5.5c0-2.8-1.2-4.9-3.9-4.9c-2.4,0-3.5,1.5-3.6,4.3l-0.1,3
		c-0.2,3.8-1.5,6.2-5.2,6.2c-3.5,0-6-3.1-6-7.8C3468.2,743.2,3470.3,739.4,3474.7,739.2z"/>
	<path d="M3486.7,765v-6.8h1.5v16.2h-1.5v-6.8h-18.2V765H3486.7z"/>
	<path d="M3488.2,778.7v13.7h-1.5v-11.1h-7.2v11.1h-1.5v-11.1h-8.1v11.1h-1.5v-13.7H3488.2z"/>
	<path d="M3488.2,797v6.8c0,5-3.6,8.3-9.7,8.3c-6.2,0-10-3.3-10-8.3V797H3488.2z M3478.5,809.5c5.7,0,8.3-2.2,8.3-5.7v-4.2H3470v4.2
		C3470,807.3,3472.8,809.5,3478.5,809.5z"/>
	<path d="M3488.2,816.4v13.7h-1.5V819h-7.2v11.1h-1.5V819h-8.1v11.1h-1.5v-13.7H3488.2z"/>
	<path d="M3488.2,835.5v2.6H3470v11.4h-1.5v-14H3488.2z"/>
	<path d="M3470,852.9v6.4h16.8v-6.4h1.5v15.4h-1.5v-6.4H3470v6.4h-1.5v-15.4H3470z"/>
	<path d="M3474.7,871.9v2.7c-3.5,0.3-5,1.8-5,4.6c0,2.8,1.5,4.4,5.5,4.4h13v2.6H3475c-5,0-6.8-3.3-6.8-7
		C3468.2,875.4,3469.9,872.4,3474.7,871.9z"/>
	<path d="M3488.2,891.3v2.6h-9.8l9.8,10.2v2.6l-7.7-8.1l-12,8.2v-3.1l10.3-6.9l-2.7-2.9h-7.6v-2.6H3488.2z"/>
	<path d="M3486.2,930h-17.7v-1.6h19.7v3l-18.1,4.6l18.1,4.5v3h-19.7v-2h17.7l-17.7-4.4v-2.6L3486.2,930z"/>
	<path d="M3475.7,947.5h12.5v2.6H3475c-3.7,0-5.3,1.7-5.3,4.8c0,3.1,1.6,4.8,5.3,4.8h13.2v2.4h-12.5c-5.1,0-7.5-2.2-7.5-7.3
		S3470.7,947.5,3475.7,947.5z"/>
	<path d="M3474.7,965.5v2.7c-3.4,0.1-5,2.6-5,5.9c0,3.1,1.4,5.2,4.2,5.2c2.5,0,3.5-1.3,3.7-4.4l0.2-3.1c0.2-3.7,1.7-6,5-6
		c3.5,0,5.7,3.3,5.7,7.5c0,4.8-2,7.7-6.4,8.2v-2.7c3.5-0.1,4.9-2.1,4.9-5.5c0-2.8-1.2-4.9-3.9-4.9c-2.4,0-3.5,1.5-3.6,4.3l-0.1,3
		c-0.2,3.8-1.5,6.2-5.2,6.2c-3.5,0-6-3.1-6-7.8C3468.2,969.4,3470.3,965.7,3474.7,965.5z"/>
	<path d="M3488.2,986.1v13.7h-1.5v-11.1h-7.2v11.1h-1.5v-11.1h-8.1v11.1h-1.5v-13.7H3488.2z"/>
	<path d="M3475.7,1004.1h12.5v2.6H3475c-3.7,0-5.3,1.7-5.3,4.8c0,3.1,1.6,4.8,5.3,4.8h13.2v2.4h-12.5c-5.1,0-7.5-2.2-7.5-7.3
		C3468.2,1006.3,3470.7,1004.1,3475.7,1004.1z"/>
	<path d="M3486.2,1024.3h-17.7v-1.6h19.7v3l-18.1,4.6l18.1,4.5v3h-19.7v-2h17.7l-17.7-4.4v-2.6L3486.2,1024.3z"/>
</g>
<g>
</g>
<g>
	<path d="M3488.2,1252.8v3l-19.7,7.1v-2.8l5.1-1.8v-8.8l-5.1-1.9v-2.1L3488.2,1252.8z M3475.1,1257.8l11-3.8l-11-4V1257.8z"/>
	<path d="M3486.7,1271.7v-6.8h1.5v16.2h-1.5v-6.8h-18.2v-2.6H3486.7z"/>
	<path d="M3488.2,1284.6v2.6h-8.8v9.4h8.8v2.6h-19.7v-2.6h9.4v-9.4h-9.4v-2.6H3488.2z"/>
	<path d="M3488.2,1304.2v13.7h-1.5v-11.1h-7.2v11.1h-1.5v-11.1h-8.1v11.1h-1.5v-13.7H3488.2z"/>
	<path d="M3488.2,1322.3v2.9l-16.8,9.8h16.8v1.9h-19.7v-2.9l16.8-9.8h-16.8v-1.9H3488.2z"/>
	<path d="M3488.2,1347.1v3l-19.7,7.1v-2.8l5.1-1.8v-8.8l-5.1-1.9v-2.1L3488.2,1347.1z M3475.1,1352.1l11-3.8l-11-4V1352.1z"/>
	<path d="M3488.2,1360.8v13.7h-1.5v-11.1h-7.2v11.1h-1.5v-11.1h-8.1v11.1h-1.5v-13.7H3488.2z"/>
	<path d="M3475.7,1378.9h12.5v2.6H3475c-3.7,0-5.3,1.7-5.3,4.8c0,3.1,1.6,4.8,5.3,4.8h13.2v2.4h-12.5c-5.1,0-7.5-2.2-7.5-7.3
		S3470.7,1378.9,3475.7,1378.9z"/>
	<path d="M3486.2,1399h-17.7v-1.6h19.7v3l-18.1,4.6l18.1,4.5v3h-19.7v-2h17.7l-17.7-4.4v-2.6L3486.2,1399z"/>
	<path d="M3488.2,1435.4v2.9l-16.8,9.8h16.8v1.9h-19.7v-2.9l16.8-9.8h-16.8v-1.9H3488.2z"/>
	<path d="M3470,1453.9v6.4h16.8v-6.4h1.5v15.4h-1.5v-6.4H3470v6.4h-1.5v-15.4H3470z"/>
	<path d="M3488.2,1474v13.7h-1.5v-11.1h-7.2v11.1h-1.5v-11.1h-8.1v11.1h-1.5V1474H3488.2z"/>
	<path d="M3475.7,1492h12.5v2.6H3475c-3.7,0-5.3,1.7-5.3,4.8c0,3.1,1.6,4.8,5.3,4.8h13.2v2.4h-12.5c-5.1,0-7.5-2.2-7.5-7.3
		C3468.2,1494.2,3470.7,1492,3475.7,1492z"/>
	<path d="M3488.2,1509.8v2l-17.4,2.5l17.4,2.7v2.6l-17.3,2.8l17.3,2.4v1.6l-19.7-2.9v-2.6l17.5-2.8l-17.5-2.6v-2.6L3488.2,1509.8z"
		/>
	<path d="M3474.7,1528.8v2.7c-3.4,0.1-5,2.6-5,5.9c0,3.1,1.4,5.2,4.2,5.2c2.5,0,3.5-1.3,3.7-4.4l0.2-3.1c0.2-3.7,1.7-6,5-6
		c3.5,0,5.7,3.3,5.7,7.5c0,4.8-2,7.7-6.4,8.2v-2.7c3.5-0.1,4.9-2.1,4.9-5.5c0-2.8-1.2-4.9-3.9-4.9c-2.4,0-3.5,1.5-3.6,4.3l-0.1,3
		c-0.2,3.8-1.5,6.2-5.2,6.2c-3.5,0-6-3.1-6-7.8C3468.2,1532.7,3470.3,1529,3474.7,1528.8z"/>
	<path d="M3478.4,1548c6.4,0,10.1,3.5,10.1,8.1c0,4.2-3.1,7.2-7.9,7.6v-2.7c4.3-0.3,6.4-2.2,6.4-5c0-3.3-2.6-5.5-8.7-5.5
		c-6,0-8.7,2.2-8.7,5.5c0,2.8,2.1,4.7,6.4,5v2.7c-4.8-0.5-7.9-3.5-7.9-7.6C3468.2,1551.5,3472,1548,3478.4,1548z"/>
	<path d="M3488.2,1568.2v13.7h-1.5v-11.1h-7.2v11.1h-1.5v-11.1h-8.1v11.1h-1.5v-13.7H3488.2z"/>
	<path d="M3488.2,1586.2v2.9l-16.8,9.8h16.8v1.9h-19.7v-2.9l16.8-9.8h-16.8v-1.9H3488.2z"/>
	<path d="M3486.7,1611.1v-6.8h1.5v16.2h-1.5v-6.8h-18.2v-2.6H3486.7z"/>
	<path d="M3488.2,1624.2v8.3c0,3.7-2.2,6.2-5.1,6.2c-2.4,0-3.9-1.4-4.5-3.8c-0.5,2-1.6,2.9-3.7,2.9h-1.5c-1.9,0-4,0.4-4.9,1.2v-3.1
		c1-0.7,2.4-0.8,4.5-0.8h1.7c2.4,0,3.1-1.2,3.1-3.5v-4.9h-9.3v-2.6H3488.2z M3483,1636c2.7,0,3.7-1.4,3.7-4.3v-5h-7.4v4.7
		C3479.3,1634.6,3480.3,1636,3483,1636z"/>
	<path d="M3475.7,1642.8h12.5v2.6H3475c-3.7,0-5.3,1.7-5.3,4.8c0,3.1,1.6,4.8,5.3,4.8h13.2v2.4h-12.5c-5.1,0-7.5-2.2-7.5-7.3
		S3470.7,1642.8,3475.7,1642.8z"/>
	<path d="M3486.2,1662.9h-17.7v-1.6h19.7v3l-18.1,4.6l18.1,4.5v3h-19.7v-2h17.7l-17.7-4.4v-2.6L3486.2,1662.9z"/>
	<path d="M3468.1,1688c0.3,0,0.5-0.2,0.5-0.5v-1.2h3.2v3h-3.7c-2.2,0-2.8-1.5-2.8-3v-0.3h1.3v0.3
		C3466.5,1687.6,3467.3,1688,3468.1,1688z"/>
	<path d="M3474.7,1717.2v2.7c-3.4,0.1-5,2.6-5,5.9c0,3.1,1.4,5.2,4.2,5.2c2.5,0,3.5-1.3,3.7-4.4l0.2-3.1c0.2-3.7,1.7-6,5-6
		c3.5,0,5.7,3.3,5.7,7.5c0,4.8-2,7.7-6.4,8.2v-2.7c3.5-0.1,4.9-2.1,4.9-5.5c0-2.8-1.2-4.9-3.9-4.9c-2.4,0-3.5,1.5-3.6,4.3l-0.1,3
		c-0.2,3.8-1.5,6.2-5.2,6.2c-3.5,0-6-3.1-6-7.8C3468.2,1721.2,3470.3,1717.4,3474.7,1717.2z"/>
	<path d="M3488.2,1742.9v3l-19.7,7.1v-2.8l5.1-1.8v-8.8l-5.1-1.9v-2.1L3488.2,1742.9z M3475.1,1747.9l11-3.8l-11-4V1747.9z"/>
	<path d="M3488.2,1756.9v2.6H3470v11.4h-1.5v-14H3488.2z"/>
	<path d="M3488.2,1773.7v2l-17.4,2.5l17.4,2.7v2.6l-17.3,2.8l17.3,2.4v1.6l-19.7-2.9v-2.6l17.5-2.8l-17.5-2.6v-2.6L3488.2,1773.7z"
		/>
	<path d="M3488.2,1799.5v3l-19.7,7.1v-2.8l5.1-1.8v-8.8l-5.1-1.9v-2.1L3488.2,1799.5z M3475.1,1804.5l11-3.8l-11-4V1804.5z"/>
</g>
</svg>
