<?xml version="1.0" encoding="utf-8"?>
<!-- Generator: Adobe Illustrator 27.8.0, SVG Export Plug-In . SVG Version: 6.00 Build 0)  -->
<svg version="1.2" baseProfile="tiny" id="Ebene_1" xmlns="http://www.w3.org/2000/svg" xmlns:xlink="http://www.w3.org/1999/xlink"
	 x="0px" y="0px" viewBox="0 0 3564 1916" overflow="visible" xml:space="preserve">
<line fill="none" stroke="#ED92D8" x1="2899.6" y1="69.2" x2="1326.6" y2="69.2"/>
<line fill="none" stroke="#ED92D8" x1="2899.6" y1="106.2" x2="2899.6" y2="32.2"/>
<line fill="none" stroke="#ED92D8" x1="2084.6" y1="106.2" x2="2084.6" y2="32.2"/>
<line fill="none" stroke="#ED92D8" x1="1326.1" y1="106.2" x2="1326.1" y2="32.2"/>
<line fill="none" stroke="#ED92D8" x1="58.8" y1="1889.8" x2="58.8" y2="316.8"/>
<line fill="none" stroke="#ED92D8" x1="21.8" y1="1889.8" x2="95.8" y2="1889.8"/>
<line fill="none" stroke="#ED92D8" x1="21.8" y1="1074.8" x2="95.8" y2="1074.8"/>
<line fill="none" stroke="#ED92D8" x1="21.8" y1="316.3" x2="95.8" y2="316.3"/>
<line fill="none" stroke="#ED92D8" x1="992.3" y1="1011" x2="2565.2" y2="1011"/>
<line fill="none" stroke="#ED92D8" x1="992.3" y1="974" x2="992.3" y2="1048"/>
<line fill="none" stroke="#ED92D8" x1="1807.3" y1="974" x2="1807.3" y2="1048"/>
<line fill="none" stroke="#ED92D8" x1="2565.8" y1="974" x2="2565.8" y2="1048"/>
<line fill="none" stroke="#ED92D8" x1="3502.9" y1="1563.4" x2="3502.9" y2="36.6"/>
<line fill="none" stroke="#ED92D8" x1="3484.9" y1="36.1" x2="3520.9" y2="36.1"/>
<line fill="none" stroke="#ED92D8" x1="3484.9" y1="575.5" x2="3520.9" y2="575.5"/>
<line fill="none" stroke="#ED92D8" x1="3484.9" y1="1049.3" x2="3520.9" y2="1049.3"/>
<line fill="none" stroke="#ED92D8" x1="3484.9" y1="1563.9" x2="3520.9" y2="1563.9"/>
</svg>
