<?xml version="1.0" encoding="utf-8"?>
<!-- Generator: Adobe Illustrator 27.8.0, SVG Export Plug-In . SVG Version: 6.00 Build 0)  -->
<svg version="1.2" baseProfile="tiny" id="Ebene_1" xmlns="http://www.w3.org/2000/svg" xmlns:xlink="http://www.w3.org/1999/xlink"
	 x="0px" y="0px" viewBox="0 0 3564 1916" overflow="visible" xml:space="preserve">
<g>
	<path fill="#BABADF" d="M1604.5,985.7c0,58.4-32.2,97.3-80,97.3c-47.8,0-80-38.9-80-97.3c0-58.4,32.2-97.3,80-97.3
		C1572.2,888.4,1604.5,927.3,1604.5,985.7z M1589.5,985.7c0-57.5-22.5-88.4-65-88.4c-42.5,0-65,30.8-65,88.4
		c0,57.5,22.5,88.4,65,88.4C1566.9,1074,1589.5,1043.2,1589.5,985.7z"/>
	<path fill="#BABADF" d="M1638.9,891.2h115.6v8.9h-105l-10.3,76.4c15.3-12.2,35.3-19.7,56.4-19.7c39.5,0,67.3,26.4,67.3,63.1
		s-30.6,63.1-70.6,63.1c-37.2,0-67.2-17.5-72.5-54.2h15.6c3.9,32.2,27.8,45.3,57,45.3c33.3,0,55.6-19.2,55.6-54.2
		c0-35.8-21.7-54.2-55-54.2c-22.2,0-45.3,11.4-56.1,28.3h-11.1L1638.9,891.2z"/>
	<path fill="#BABADF" d="M1872.9,885.6h124.5v8.9h-110v79.8h110v8.9h-110v97h-14.5V885.6z"/>
	<path fill="#BABADF" d="M2021.9,1007.1c0-44.5,32.5-75.9,75.6-75.9c45.6,0,76.1,29.5,75.6,73.1h-137.8c0,52.8,28.6,70.9,62.5,70.9
		c31.7,0,55.6-15.3,59.2-43.9h13.3c-6.7,34.2-37.2,51.7-72.5,51.7C2053.5,1082.9,2021.9,1051.5,2021.9,1007.1z M2097.2,939
		c-32.2,0-57.5,18.9-61.4,57.5h124.5C2158.6,959.5,2133.3,939,2097.2,939z"/>
	<path fill="#BABADF" d="M2208.9,1050.7v29.5h-12.8V885.6h12.8v78.9c11.7-19.2,33.6-33.3,57.5-33.3c44.5,0,74.8,31.4,74.8,75.9
		s-30.3,75.9-74.8,75.9C2242,1082.9,2220.3,1069.9,2208.9,1050.7z M2327.8,1007.1c0-44.5-25.6-68.1-61.4-68.1
		c-33.6,0-58.6,25-58.6,68.1c0,43.4,25,68.1,58.6,68.1C2302.3,1075.1,2327.8,1051.5,2327.8,1007.1z"/>
	<path fill="#BABADF" d="M2369.8,987.6h122.6v8.9h-122.6V987.6z"/>
</g>
<g>
	<path fill="#BABADF" d="M1175.4,1253.6l45.6-27c25-14.7,36.7-22.5,36.7-49.2c0-31.1-20.3-45.9-51.7-45.9c-31.1,0-58.4,12.2-60,55.3
		h-15c5.3-43.1,31.4-64.2,75-64.2c39.5,0,66.7,25.6,66.7,54.7c0,28.9-19.2,44.5-46.4,60.3l-43.9,25.6c-15,8.6-34.7,22.2-33.1,42.2
		h123.7v8.9H1134v-5C1134,1279.4,1152.9,1266.9,1175.4,1253.6z"/>
	<path fill="#BABADF" d="M1297.4,1268.6h15.6c3.6,27.8,21.1,39.7,51.1,39.7c42.8,0,65-35.6,62-93.7c-11.9,16.4-33.1,28.6-60.6,28.6
		c-41.1,0-70-24.2-70-60.3s30.6-60.3,72-60.3c47.2,0,74.2,27.8,74.2,90.3c0,60.3-23.6,104.2-77.5,104.2
		C1327.1,1317.2,1302.7,1298.8,1297.4,1268.6z M1423.3,1183c0-35-23.3-51.4-56.4-51.4c-32.2,0-56.4,16.4-56.4,51.4
		s25,51.4,56.4,51.4C1401.6,1234.4,1423.3,1218,1423.3,1183z"/>
	<path fill="#BABADF" d="M1544.7,1133.5v180.9h-10v-194.5h17.2l56.1,183.1l55.6-183.1h17.8v194.5h-12.2v-180.9l-55.3,180.9h-13.6
		L1544.7,1133.5z"/>
	<path fill="#BABADF" d="M1707.8,1273.3c0-35.8,27-40.9,63.9-43.4c32.8-2.2,56.4-0.3,56.4-23.6c0-20-20.3-33.1-48.9-33.1
		c-30.6,0-47.8,11.7-52.2,37.2h-13.3c3.9-30.6,32.2-45,64.5-45c39.2,0,63.9,18.3,63.9,52.8v96.2h-12.8v-27.8
		c-16.4,22-42.2,30.6-63.9,30.6C1730.9,1317.2,1707.8,1303,1707.8,1273.3z M1829.3,1266.6v-41.1c-8.9,10.8-27.5,10-55.9,12.2
		c-35.8,2.8-52.2,8.1-52.2,35.6c0,23.6,16.7,36.1,47,36.1C1794.3,1309.4,1823.7,1293.8,1829.3,1266.6z"/>
	<path fill="#BABADF" d="M1891.3,1168.2h12.8v21.4c13.6-15,32-24.2,51.4-24.2c17.2,0,30.8,4.4,40,14.7c7.8,8.9,11.9,22,11.9,38.9
		v9.2h-12.8v-5c0-34.7-14.7-50-41.7-50c-20.8,0-44.5,17.2-48.9,37.8v103.4h-12.8V1168.2z"/>
	<path fill="#BABADF" d="M2154.7,1253.6l45.6-27c25-14.7,36.7-22.5,36.7-49.2c0-31.1-20.3-45.9-51.7-45.9c-31.1,0-58.4,12.2-60,55.3
		h-15c5.3-43.1,31.4-64.2,75-64.2c39.5,0,66.7,25.6,66.7,54.7c0,28.9-19.2,44.5-46.4,60.3l-43.9,25.6c-15,8.6-34.7,22.2-33.1,42.2
		h123.7v8.9h-138.9v-5C2113.3,1279.4,2132.2,1266.9,2154.7,1253.6z"/>
	<path fill="#BABADF" d="M2427.9,1219.9c0,58.4-32.2,97.3-80,97.3c-47.8,0-80-38.9-80-97.3s32.2-97.3,80-97.3
		C2395.6,1122.7,2427.9,1161.6,2427.9,1219.9z M2412.9,1219.9c0-57.5-22.5-88.4-65-88.4s-65,30.8-65,88.4c0,57.5,22.5,88.4,65,88.4
		S2412.9,1277.4,2412.9,1219.9z"/>
	<path fill="#BABADF" d="M2488.2,1253.6l45.6-27c25-14.7,36.7-22.5,36.7-49.2c0-31.1-20.3-45.9-51.7-45.9c-31.1,0-58.4,12.2-60,55.3
		h-15c5.3-43.1,31.4-64.2,75-64.2c39.5,0,66.7,25.6,66.7,54.7c0,28.9-19.2,44.5-46.4,60.3l-43.9,25.6c-15,8.6-34.7,22.2-33.1,42.2
		h123.7v8.9h-138.9v-5C2446.8,1279.4,2465.7,1266.9,2488.2,1253.6z"/>
	<path fill="#BABADF" d="M2608.5,1226.9c0-60.3,30.8-104.2,80.9-104.2c33.3,0,57.8,18.3,63.1,48.6h-15
		c-3.6-27.5-21.1-39.7-48.1-39.7c-39.7,0-68.6,38.6-65.6,95.6c10-16.1,30.6-30.6,61.4-30.6c40.8,0,69.5,24.2,69.5,60.3
		c0,36.1-29.7,60.3-71.4,60.3C2634.6,1317.2,2608.5,1288.8,2608.5,1226.9z M2739.7,1256.9c0-34.5-23.9-51.4-55.9-51.4
		c-34.2,0-57,17-57,51.4c0,35,22.8,51.4,57,51.4C2715.8,1308.3,2739.7,1291.9,2739.7,1256.9z"/>
</g>
<g>
	<g>
	</g>
	<g>
	</g>
	<g>
	</g>
	<g>
		<path fill="#ED92D8" d="M2072.7,1594.8h69.5v-179h-69.5v-7.8h82.3v186.7h69.5v7.8h-151.7V1594.8z"/>
	</g>
	<g>
		<path fill="#ED92D8" d="M1914.9,1561.5c0-35.8,27-40.9,63.9-43.4c32.8-2.2,56.4-0.3,56.4-23.6c0-20-20.3-33.1-48.9-33.1
			c-30.6,0-47.8,11.7-52.2,37.2h-13.3c3.9-30.6,32.2-45,64.5-45c39.2,0,63.9,18.3,63.9,52.8v96.2h-12.8v-27.8
			c-16.4,22-42.2,30.6-63.9,30.6C1937.9,1605.4,1914.9,1591.2,1914.9,1561.5z M2036.3,1554.8v-41.1c-8.9,10.8-27.5,10-55.9,12.2
			c-35.8,2.8-52.2,8.1-52.2,35.6c0,23.6,16.7,36.1,47,36.1C2001.3,1597.6,2030.8,1582,2036.3,1554.8z"/>
	</g>
	<g>
		<path fill="#ED92D8" d="M1739.2,1594.8h69.5v-130.6h-69.5v-7.8h82.3v138.4h69.5v7.8h-151.7V1594.8z M1805.9,1411.4h18.3v19.5
			h-18.3V1411.4z"/>
	</g>
	<g>
		<path fill="#ED92D8" d="M1593.1,1456.4h12.8v21.4c13.6-15,32-24.2,51.4-24.2c17.2,0,30.8,4.4,40,14.7c7.8,8.9,11.9,22,11.9,38.9
			v95.3h-12.8v-93.9c0-32.8-14.7-47.2-41.7-47.2c-20.8,0-44.5,17-48.9,37.2v103.9h-12.8V1456.4z"/>
	</g>
	<g>
		<path fill="#ED92D8" d="M1426.3,1456.4h12.8v21.4c13.6-15,32-24.2,51.4-24.2c17.2,0,30.8,4.4,40,14.7c7.8,8.9,11.9,22,11.9,38.9
			v95.3h-12.8v-93.9c0-32.8-14.7-47.2-41.7-47.2c-20.8,0-44.5,17-48.9,37.2v103.9h-12.8V1456.4z"/>
	</g>
	<g>
		<path fill="#ED92D8" d="M1239.3,1529.5c0-44.5,32.5-75.9,75.6-75.9c45.6,0,76.1,29.5,75.6,73.1h-137.8c0,52.8,28.6,70.9,62.5,70.9
			c31.7,0,55.6-15.3,59.2-43.9h13.3c-6.7,34.2-37.2,51.7-72.5,51.7C1271,1605.4,1239.3,1574,1239.3,1529.5z M1314.6,1461.4
			c-32.2,0-57.5,18.9-61.4,57.5h124.5C1376,1482,1350.7,1461.4,1314.6,1461.4z"/>
	</g>
	<g>
		<path fill="#ED92D8" d="M1072.3,1594.8h69.5v-130.6h-69.5v-7.8h82.3v138.4h69.5v7.8h-151.7V1594.8z M1139,1411.4h18.3v19.5H1139
			V1411.4z"/>
	</g>
	<g>
		<path fill="#ED92D8" d="M917.8,1408.1h71.4c41.1,0,62.2,17.8,62.2,48.4c0,23.3-13.1,40.9-42.2,45.6c30.8,4.4,47.5,22.2,47.5,47.2
			c0,35.6-26.7,53.4-68.6,53.4h-70.3V1408.1z M1036.4,1457.5c0-27.8-15.8-40.6-49.2-40.6h-55v82.3h55
			C1021.2,1499.2,1036.4,1485.3,1036.4,1457.5z M1041.7,1548.7c0-33.6-26.4-40.6-53.1-40.6h-56.4v85.6h57
			C1024.5,1593.7,1041.7,1580.1,1041.7,1548.7z"/>
	</g>
</g>
<g>
	<path fill="#BABADF" d="M2381.2,1396.6v90.5h-5v-97.3h8.6l28.1,91.6l27.8-91.6h8.9v97.3h-6.1v-90.5l-27.6,90.5h-6.8L2381.2,1396.6z
		"/>
	<path fill="#BABADF" d="M2458.6,1450.5c0-22.2,16.3-37.9,37.8-37.9c22.8,0,38.1,14.7,37.8,36.5h-68.9c0,26.4,14.3,35.4,31.3,35.4
		c15.8,0,27.8-7.6,29.6-22h6.7c-3.3,17.1-18.6,25.8-36.3,25.8C2474.4,1488.5,2458.6,1472.8,2458.6,1450.5z M2496.2,1416.5
		c-16.1,0-28.8,9.4-30.7,28.8h62.2C2526.9,1426.8,2514.3,1416.5,2496.2,1416.5z"/>
	<path fill="#BABADF" d="M2541.8,1483.2h34.7v-89.5h-34.7v-3.9h41.1v93.4h34.7v3.9h-75.9V1483.2z"/>
	<path fill="#BABADF" d="M2658.2,1471.2v-53.4h-32.8v-3.9h32.8v-17.2h6.4v17.2h36.5v3.9h-36.5v53.2c0,8.9,2.9,12.1,10.8,12.1h25.7
		v3.9h-27.2C2664.5,1487.1,2658.2,1481.9,2658.2,1471.2z"/>
	<path fill="#BABADF" d="M2708.8,1450.5c0-22.2,16.3-37.9,37.8-37.9c22.8,0,38.1,14.7,37.8,36.5h-68.9c0,26.4,14.3,35.4,31.3,35.4
		c15.8,0,27.8-7.6,29.6-22h6.7c-3.3,17.1-18.6,25.8-36.3,25.8C2724.6,1488.5,2708.8,1472.8,2708.8,1450.5z M2746.5,1416.5
		c-16.1,0-28.8,9.4-30.7,28.8h62.2C2777.2,1426.8,2764.5,1416.5,2746.5,1416.5z"/>
	<path fill="#BABADF" d="M2791.6,1450.5c0-22.2,15.1-37.9,37.4-37.9c12,0,22.9,7.1,28.8,16.7v-39.5h6.4v97.3h-6.4v-14.7
		c-5.7,9.6-16.5,16.1-28.8,16.1C2806.8,1488.5,2791.6,1472.8,2791.6,1450.5z M2858.3,1450.5c0-21.5-12.5-34-29.3-34
		c-17.9,0-30.7,11.8-30.7,34s12.8,34,30.7,34C2845.8,1484.6,2858.3,1472.2,2858.3,1450.5z"/>
</g>
<g>
	<path fill="#BABADF" d="M2348.1,1604.2V1535h-32.8v-3.9h32.8v-8.3c0-10.7,6.3-15.8,15.7-15.8h27.2v3.9h-25.7
		c-7.9,0-10.8,3.2-10.8,12.1v8.2h36.5v3.9h-36.5v69.2H2348.1z"/>
	<path fill="#BABADF" d="M2398,1567.7c0-22.2,16.1-37.9,38.6-37.9c22.5,0,38.6,15.7,38.6,37.9s-16.1,37.9-38.6,37.9
		C2414.1,1605.6,2398,1589.9,2398,1567.7z M2468.6,1567.7c0-22.8-13.3-34-32-34c-18.6,0-32,11.3-32,34s13.3,34,32,34
		C2455.2,1601.7,2468.6,1590.5,2468.6,1567.7z"/>
	<path fill="#BABADF" d="M2494.7,1531.1h6.4v10.7c6.8-7.5,16-12.1,25.7-12.1c8.6,0,15.4,2.2,20,7.4c3.9,4.4,6,11,6,19.5v4.6h-6.4
		v-2.5c0-17.4-7.4-25-20.8-25c-10.4,0-22.2,8.6-24.5,18.9v51.7h-6.4V1531.1z"/>
	<path fill="#BABADF" d="M2611.3,1507h7.2v92.8h58.6v4.4h-65.9V1507z"/>
	<path fill="#BABADF" d="M2684.3,1567.7c0-22.2,16.1-37.9,38.6-37.9c22.5,0,38.6,15.7,38.6,37.9s-16.1,37.9-38.6,37.9
		C2700.5,1605.6,2684.3,1589.9,2684.3,1567.7z M2754.9,1567.7c0-22.8-13.3-34-32-34c-18.6,0-32,11.3-32,34s13.3,34,32,34
		C2741.6,1601.7,2754.9,1590.5,2754.9,1567.7z"/>
	<path fill="#BABADF" d="M2772.7,1531.1h6.9l27.2,68.1l28.1-68.1h5.3l-30.4,73.1h-6.7L2772.7,1531.1z"/>
	<path fill="#BABADF" d="M2852.2,1567.7c0-22.2,16.3-37.9,37.8-37.9c22.8,0,38.1,14.7,37.8,36.5h-68.9c0,26.4,14.3,35.4,31.3,35.4
		c15.8,0,27.8-7.6,29.6-22h6.7c-3.3,17.1-18.6,25.8-36.3,25.8C2868,1605.6,2852.2,1589.9,2852.2,1567.7z M2889.8,1533.6
		c-16.1,0-28.8,9.4-30.7,28.8h62.2C2920.6,1543.9,2907.9,1533.6,2889.8,1533.6z"/>
</g>
</svg>
